<?xml version="1.0" encoding="UTF-8" standalone="no"?>
<!-- Generated by IcoMoon.io -->

<svg
   xmlns:dc="http://purl.org/dc/elements/1.1/"
   xmlns:cc="http://creativecommons.org/ns#"
   xmlns:rdf="http://www.w3.org/1999/02/22-rdf-syntax-ns#"
   xmlns:svg="http://www.w3.org/2000/svg"
   xmlns="http://www.w3.org/2000/svg"
   xmlns:xlink="http://www.w3.org/1999/xlink"
   xmlns:sodipodi="http://sodipodi.sourceforge.net/DTD/sodipodi-0.dtd"
   xmlns:inkscape="http://www.inkscape.org/namespaces/inkscape"
   version="1.1"
   width="32"
   height="32"
   viewBox="0 0 32 32"
   id="svg2"
   inkscape:version="0.48.5 r10040"
   sodipodi:docname="cogs.svg">
  <title
     id="title3889">Engine</title>
  <metadata
     id="metadata11">
    <rdf:RDF>
      <cc:Work
         rdf:about="">
        <dc:format>image/svg+xml</dc:format>
        <dc:type
           rdf:resource="http://purl.org/dc/dcmitype/StillImage" />
        <dc:title>Engine</dc:title>
        <dc:creator>
          <cc:Agent>
            <dc:title>Anastassiya Bekassova</dc:title>
          </cc:Agent>
        </dc:creator>
        <cc:license
           rdf:resource="GPL" />
      </cc:Work>
    </rdf:RDF>
  </metadata>
  <defs
     id="defs9">
    <linearGradient
       inkscape:collect="always"
       id="linearGradient3832">
      <stop
         style="stop-color:#500092;stop-opacity:1"
         offset="0"
         id="stop3834" />
      <stop
         style="stop-color:#d2d2d2;stop-opacity:1"
         offset="1"
         id="stop3836" />
    </linearGradient>
    <linearGradient
       inkscape:collect="always"
       xlink:href="#linearGradient3832"
       id="linearGradient3838"
       x1="26.587048"
       y1="14.835155"
       x2="15.791791"
       y2="5.9762368"
       gradientUnits="userSpaceOnUse" />
    <linearGradient
       inkscape:collect="always"
       xlink:href="#linearGradient3832-4"
       id="linearGradient3838-9"
       x1="26.587048"
       y1="14.835155"
       x2="15.791791"
       y2="5.9762368"
       gradientUnits="userSpaceOnUse" />
    <linearGradient
       inkscape:collect="always"
       id="linearGradient3832-4">
      <stop
         style="stop-color:#500092;stop-opacity:1"
         offset="0"
         id="stop3834-8" />
      <stop
         style="stop-color:#d2d2d2;stop-opacity:1"
         offset="1"
         id="stop3836-8" />
    </linearGradient>
    <linearGradient
       gradientTransform="translate(-13.904963,17.452481)"
       y2="5.9762368"
       x2="15.791791"
       y1="14.835155"
       x1="26.587048"
       gradientUnits="userSpaceOnUse"
       id="linearGradient3866"
       xlink:href="#linearGradient3832-4"
       inkscape:collect="always" />
  </defs>
  <sodipodi:namedview
     pagecolor="#ffffff"
     bordercolor="#666666"
     borderopacity="1"
     objecttolerance="10"
     gridtolerance="10"
     guidetolerance="10"
     inkscape:pageopacity="0"
     inkscape:pageshadow="2"
     inkscape:window-width="1920"
     inkscape:window-height="1018"
     id="namedview7"
     showgrid="false"
     inkscape:zoom="10.429825"
     inkscape:cx="-10.199403"
     inkscape:cy="12.412391"
     inkscape:window-x="-8"
     inkscape:window-y="-8"
     inkscape:window-maximized="1"
     inkscape:current-layer="svg2" />
  <g
     id="icomoon-ignore" />
  <g
     id="g3885">
    <path
       id="path2990"
       d="M 20 0 L 19.625 2.09375 C 19.374 2.13275 19.119 2.19 18.875 2.25 L 17.71875 0.46875 L 15.875 1.21875 L 16.3125 3.3125 C 16.0965 3.4445 15.8905 3.56975 15.6875 3.71875 L 13.9375 2.5 L 12.5 3.9375 L 13.71875 5.6875 C 13.56975 5.8905 13.4445 6.0965 13.3125 6.3125 L 11.21875 5.875 L 10.46875 7.71875 L 12.25 8.875 C 12.191 9.119 12.13275 9.374 12.09375 9.625 L 10 10 L 10 12 L 12.09375 12.375 C 12.13275 12.626 12.19 12.881 12.25 13.125 L 10.46875 14.28125 L 11.21875 16.125 L 13.3125 15.6875 C 13.4445 15.9035 13.56975 16.1095 13.71875 16.3125 L 12.5 18.0625 L 13.9375 19.5 L 15.6875 18.28125 C 15.8905 18.43025 16.0965 18.5555 16.3125 18.6875 L 15.875 20.78125 L 17.71875 21.53125 L 18.875 19.75 C 19.119 19.809 19.374 19.86725 19.625 19.90625 L 20 22 L 22 22 L 22.375 19.90625 C 22.626 19.86725 22.881 19.81 23.125 19.75 L 24.28125 21.53125 L 26.125 20.78125 L 25.6875 18.6875 C 25.9035 18.5555 26.1095 18.43025 26.3125 18.28125 L 28.0625 19.5 L 29.5 18.0625 L 28.28125 16.3125 C 28.43025 16.1095 28.5555 15.9035 28.6875 15.6875 L 30.78125 16.125 L 31.53125 14.28125 L 29.75 13.125 C 29.809 12.881 29.86725 12.626 29.90625 12.375 L 32 12 L 32 10 L 29.90625 9.625 C 29.86725 9.374 29.81 9.119 29.75 8.875 L 31.53125 7.71875 L 30.78125 5.875 L 28.6875 6.3125 C 28.5555 6.0965 28.43025 5.8905 28.28125 5.6875 L 29.5 3.9375 L 28.0625 2.5 L 26.3125 3.71875 C 26.1095 3.56975 25.9035 3.4445 25.6875 3.3125 L 26.125 1.21875 L 24.28125 0.46875 L 23.125 2.25 C 22.881 2.191 22.626 2.13275 22.375 2.09375 L 22 0 L 20 0 z M 21 6.65625 C 23.402 6.65625 25.34375 8.598 25.34375 11 C 25.34375 13.402 23.402 15.34375 21 15.34375 C 18.598 15.34375 16.65625 13.402 16.65625 11 C 16.65625 8.598 18.598 6.65625 21 6.65625 z "
       style="fill:url(#linearGradient3838);fill-opacity:1;stroke:#0000c8;stroke-opacity:1;stroke-width:0.29999999999999999;stroke-miterlimit:4;stroke-dasharray:none;stroke-linejoin:round" />
    <path
       id="path2990-2"
       d="m 6.0950375,17.452481 -0.375,2.09375 c -0.251,0.039 -0.506,0.09625 -0.75,0.15625 l -1.1562501,-1.78125 -1.84375,0.75 0.4375,2.09375 c -0.216,0.132 -0.422,0.25725 -0.625,0.40625 l -1.74999999,-1.21875 -1.43750001,1.437501 1.21875001,1.75 c -0.149,0.203 -0.27425,0.409 -0.40625,0.625 l -2.09375001,-0.4375 -0.75,1.84375 1.78125,1.15625 c -0.059,0.244 -0.11725,0.499 -0.15625,0.75 l -2.09375,0.375 0,2 2.09375,0.375 c 0.039,0.251 0.09625,0.506 0.15625,0.75 l -1.78125,1.15625 0.75,1.84375 2.09375001,-0.4375 c 0.132,0.216 0.25725,0.422 0.40625,0.625 l -1.21875001,1.75 1.43750001,1.4375 1.74999999,-1.21875 c 0.203,0.149 0.409,0.27425 0.625,0.40625 l -0.4375,2.09375 1.84375,0.75 1.1562501,-1.78125 c 0.244,0.059 0.499,0.11725 0.75,0.15625 l 0.375,2.09375 2,0 0.375,-2.09375 c 0.251,-0.039 0.506,-0.09625 0.75,-0.15625 l 1.1562505,1.78125 1.84375,-0.75 -0.4375,-2.09375 c 0.216,-0.132 0.422,-0.25725 0.625,-0.40625 l 1.75,1.21875 1.4375,-1.4375 -1.21875,-1.75 c 0.149,-0.203 0.27425,-0.409 0.40625,-0.625 l 2.09375,0.4375 0.75,-1.84375 -1.78125,-1.15625 c 0.059,-0.244 0.11725,-0.499 0.15625,-0.75 l 2.09375,-0.375 0,-2 -2.09375,-0.375 c -0.039,-0.251 -0.09625,-0.506 -0.15625,-0.75 l 1.78125,-1.15625 -0.75,-1.84375 -2.09375,0.4375 c -0.132,-0.216 -0.25725,-0.422 -0.40625,-0.625 l 1.21875,-1.75 -1.4375,-1.437501 -1.75,1.21875 c -0.203,-0.149 -0.409,-0.27425 -0.625,-0.40625 l 0.4375,-2.09375 -1.84375,-0.75 -1.1562505,1.78125 c -0.244,-0.059 -0.499,-0.11725 -0.75,-0.15625 l -0.375,-2.09375 -2,0 z m 1,6.656251 c 2.402,0 4.3437505,1.94175 4.3437505,4.34375 0,2.402 -1.9417505,4.34375 -4.3437505,4.34375 -2.402,0 -4.3437501,-1.94175 -4.3437501,-4.34375 0,-2.402 1.9417501,-4.34375 4.3437501,-4.34375 z"
       style="fill:url(#linearGradient3866);fill-opacity:1;stroke:#0000c8;stroke-width:0.30000001;stroke-linejoin:round;stroke-miterlimit:4;stroke-opacity:1;stroke-dasharray:none"
       inkscape:connector-curvature="0" />
  </g>
</svg>
