<?xml version="1.0" encoding="UTF-8" standalone="no"?>
<!-- Created with Inkscape (http://www.inkscape.org/) -->

<svg
   xmlns:dc="http://purl.org/dc/elements/1.1/"
   xmlns:cc="http://creativecommons.org/ns#"
   xmlns:rdf="http://www.w3.org/1999/02/22-rdf-syntax-ns#"
   xmlns:svg="http://www.w3.org/2000/svg"
   xmlns="http://www.w3.org/2000/svg"
   xmlns:sodipodi="http://sodipodi.sourceforge.net/DTD/sodipodi-0.dtd"
   xmlns:inkscape="http://www.inkscape.org/namespaces/inkscape"
   width="64"
   height="64"
   id="svg6288"
   version="1.1"
   inkscape:version="0.48.5 r10040"
   sodipodi:docname="RemoveBlock.svg">
  <title
     id="title3121">Cut</title>
  <defs
     id="defs6290" />
  <sodipodi:namedview
     id="base"
     pagecolor="#ffffff"
     bordercolor="#666666"
     borderopacity="1.0"
     inkscape:pageopacity="0.0"
     inkscape:pageshadow="2"
     inkscape:zoom="0.98994949"
     inkscape:cx="-614.65352"
     inkscape:cy="130.54731"
     inkscape:document-units="px"
     inkscape:current-layer="layer1"
     showgrid="false"
     inkscape:window-width="1920"
     inkscape:window-height="1138"
     inkscape:window-x="-8"
     inkscape:window-y="-8"
     inkscape:window-maximized="1" />
  <metadata
     id="metadata6293">
    <rdf:RDF>
      <cc:Work
         rdf:about="">
        <dc:format>image/svg+xml</dc:format>
        <dc:type
           rdf:resource="http://purl.org/dc/dcmitype/StillImage" />
        <dc:title>Cut</dc:title>
        <dc:creator>
          <cc:Agent>
            <dc:title>Nastya Bekassova</dc:title>
          </cc:Agent>
        </dc:creator>
        <dc:rights>
          <cc:Agent>
            <dc:title>Nastya Bekassova</dc:title>
          </cc:Agent>
        </dc:rights>
        <dc:description>More Air for YAGF icon set</dc:description>
        <dc:source>symmetrica.net/~bekassova/</dc:source>
        <cc:license
           rdf:resource="http://www.gnu.org/copyleft/gpl.html" />
      </cc:Work>
    </rdf:RDF>
  </metadata>
  <g
     inkscape:label="Layer 1"
     inkscape:groupmode="layer"
     id="layer1"
     transform="translate(0,-988.36218)">
    <path
       style="font-size:medium;font-style:normal;font-variant:normal;font-weight:normal;font-stretch:normal;text-indent:0;text-align:start;text-decoration:none;line-height:normal;letter-spacing:normal;word-spacing:normal;text-transform:none;direction:ltr;block-progression:tb;writing-mode:lr-tb;text-anchor:start;baseline-shift:baseline;color:#000000;fill:#000092;fill-opacity:1;fill-rule:nonzero;stroke:none;stroke-width:1;marker:none;visibility:visible;display:inline;overflow:visible;enable-background:accumulate;font-family:Sans;-inkscape-font-specification:Sans"
       d="m 23.388892,1001.4288 -0.34375,0.375 c -1.116292,1.1179 -1.214308,2.7325 -1.214308,4.3437 0,1.6112 0.792496,2.7207 1.908788,3.8387 l 6.96177,8.1613 -1.5,1.5 -0.71875,0 c -1.838628,0 -3.765091,0.7996 -5.28125,2.3125 -2.710474,2.7041 -3.135895,6.8072 -0.78125,9.1563 1.037974,1.0346 2.426142,1.5312 3.875,1.5312 1.838628,0 3.796341,-0.7995 5.3125,-2.3125 1.684721,-1.6807 2.387553,-3.8669 2.1875,-5.875 l 1.59375,-1.5937 1.5625,1.5625 c -0.211284,2.0165 0.526461,4.217 2.21875,5.9062 1.516159,1.513 3.442622,2.3125 5.28125,2.3125 1.448858,0 2.837784,-0.4962 3.875,-1.5312 2.135187,-2.1302 1.907571,-5.6494 -0.15625,-8.3125 l 0.25,0 -0.84375,-0.8438 c -1.516076,-1.5129 -3.441707,-2.3125 -5.28125,-2.3125 l -0.71875,0 -1.5,-1.5 7.024905,-7.8456 c 1.116292,-1.118 1.814403,-1.8557 1.814403,-3.4669 0,-1.6112 0.30823,-3.5383 -0.745558,-5.0937 l -0.375,-0.375 -0.34375,0.375 -12.0625,11.6875 c 0,0 -7.75,-7.75 -11.625,-11.625 -0.125,-0.125 -0.375,-0.375 -0.375,-0.375 z m -0.09375,1 11.71875,12.0625 0.34375,0.3437 c -1.795064,0.017 -3.278511,1.4579 -3.3125,3.25 l -0.3125,-0.2812 -7.459867,-8.5057 c -0.880708,-0.8821 -1.754441,-1.8244 -1.754441,-3.2137 0,-1.2027 0.11072,-2.7847 0.776808,-3.6556 z m 24.375,0.1875 c 0.666087,0.8709 0.496827,3.0167 0.496827,4.2194 0,1.3893 -1.466849,2.8341 -2.347557,3.7162 l -6.80552,7.2519 -0.3125,0.3125 c -0.0173,-1.8063 -1.475988,-3.2639 -3.28125,-3.2813 l 0.3125,-0.3437 z m -12.28125,13.2187 c 1.289274,0 2.3125,1.0203 2.3125,2.3125 0,1.2923 -1.023226,2.3438 -2.3125,2.3438 -1.289274,0 -2.34375,-1.0515 -2.34375,-2.3438 0,-1.2922 1.054476,-2.3125 2.34375,-2.3125 z m 3.3125,2.3438 0.3125,0.3125 2,2 0.15625,0.1562 0.21875,0 0.90625,0 c 1.550457,0 3.224576,0.6649 4.5625,2 2.391619,2.386 2.677714,5.858 0.78125,7.75 -0.834784,0.833 -1.966358,1.25 -3.1875,1.25 -1.549372,0 -3.224659,-0.6649 -4.5625,-2 -1.569435,-1.5666 -2.242466,-3.6375 -1.96875,-5.375 l 0.03125,-0.25 -0.1875,-0.1875 -2.03125,-2.0312 -0.28125,-0.3125 c 1.790805,-0.034 3.232804,-1.5168 3.25,-3.3125 z m -6.65625,0.031 c 0.03379,1.7819 1.500312,3.2481 3.28125,3.2813 l -0.3125,0.3125 -2.03125,2.0312 -0.1875,0.1875 0.0625,0.25 c 0.273742,1.7377 -0.398447,3.8085 -1.96875,5.375 -1.337841,1.3351 -3.044378,2 -4.59375,2 -1.221142,0 -2.320224,-0.4166 -3.15625,-1.25 -1.895355,-1.8909 -1.641526,-5.3641 0.75,-7.75 1.337841,-1.335 3.044378,-2 4.59375,-2 l 0.90625,0 0.21875,0 0.125,-0.1562 2,-2 z m -3.5625,4.0938 c -0.568393,0 -1.157524,0.1345 -1.71875,0.375 -0.622915,0.2671 -1.18862,0.6584 -1.6875,1.1562 -0.498855,0.4978 -0.889091,1.0679 -1.15625,1.6875 -0.239455,0.5569 -0.375,1.1546 -0.375,1.7188 0,0.5435 0.115318,1.3353 0.75,1.9687 0.639155,0.6379 1.4523,0.7813 2,0.7813 0.568393,0 1.157524,-0.1345 1.71875,-0.375 0.622915,-0.2671 1.18862,-0.6585 1.6875,-1.1563 0.498855,-0.4977 0.920341,-1.0678 1.1875,-1.6875 0.239455,-0.5568 0.34375,-1.1545 0.34375,-1.7187 0,-0.5435 -0.115318,-1.3353 -0.75,-1.9688 -0.639155,-0.6379 -1.4523,-0.7812 -2,-0.7812 z m 13.8125,0 c -0.549246,0 -1.392481,0.145 -2.03125,0.7812 -0.634682,0.6335 -0.75,1.4253 -0.75,1.9688 0,0.5642 0.135545,1.1619 0.375,1.7187 0.267045,0.6194 0.656488,1.1889 1.15625,1.6875 0.499789,0.4987 1.064848,0.8893 1.6875,1.1563 0.561226,0.2405 1.150357,0.375 1.71875,0.375 0.549246,0 1.361231,-0.145 2,-0.7813 0.634682,-0.6334 0.78125,-1.4252 0.78125,-1.9687 0,-0.5642 -0.135545,-1.1619 -0.375,-1.7188 -0.267244,-0.6198 -0.657989,-1.1892 -1.15625,-1.6875 -0.499292,-0.4993 -1.065045,-0.8893 -1.6875,-1.1562 -0.561226,-0.2405 -1.150357,-0.375 -1.71875,-0.375 z m -13.8125,1 c 0.3983,0 0.935655,0.093 1.3125,0.4687 0.373318,0.3726 0.4375,0.8888 0.4375,1.2813 0,0.4078 -0.0907,0.8694 -0.28125,1.3125 -0.214841,0.4983 -0.522355,0.9607 -0.9375,1.375 -0.41512,0.4142 -0.873915,0.7226 -1.375,0.9375 -0.446774,0.1915 -0.930143,0.3125 -1.34375,0.3125 -0.3983,0 -0.904405,-0.093 -1.28125,-0.4688 -0.373318,-0.3725 -0.46875,-0.8887 -0.46875,-1.2812 0,-0.4078 0.0907,-0.8694 0.28125,-1.3125 0.214841,-0.4983 0.522355,-0.9608 0.9375,-1.375 0.41512,-0.4142 0.905165,-0.7226 1.40625,-0.9375 0.446774,-0.1915 0.898893,-0.3125 1.3125,-0.3125 z m 13.8125,0 c 0.413607,0 0.865726,0.121 1.3125,0.3125 0.501545,0.2151 0.960292,0.5228 1.375,0.9375 0.415739,0.4157 0.722744,0.8769 0.9375,1.375 0.190545,0.4431 0.3125,0.9047 0.3125,1.3125 0,0.3925 -0.09543,0.9087 -0.46875,1.2812 -0.377231,0.3758 -0.913746,0.4688 -1.3125,0.4688 -0.413607,0 -0.865726,-0.121 -1.3125,-0.3125 -0.501348,-0.215 -0.958789,-0.5222 -1.375,-0.9375 -0.416238,-0.4153 -0.753795,-0.8764 -0.96875,-1.375 -0.190545,-0.4431 -0.28125,-0.9047 -0.28125,-1.3125 0,-0.3925 0.09543,-0.9087 0.46875,-1.2813 0.377231,-0.3757 0.913746,-0.4687 1.3125,-0.4687 z"
       id="path4170"
       inkscape:connector-curvature="0"
       sodipodi:nodetypes="ccscccsccscccccsccccscccsccccscccccccsccsccccccssssscccccsccsccccccccccccccsccscccccscscssscscsssscscscscscscsssscscssscscsscscscscscscs" />
  </g>
</svg>
