<?xml version="1.0" encoding="UTF-8" standalone="no"?>
<!-- Generator: Adobe Illustrator 16.0.0, SVG Export Plug-In . SVG Version: 6.00 Build 0) -->

<svg
   xmlns:dc="http://purl.org/dc/elements/1.1/"
   xmlns:cc="http://creativecommons.org/ns#"
   xmlns:rdf="http://www.w3.org/1999/02/22-rdf-syntax-ns#"
   xmlns:svg="http://www.w3.org/2000/svg"
   xmlns="http://www.w3.org/2000/svg"
   xmlns:sodipodi="http://sodipodi.sourceforge.net/DTD/sodipodi-0.dtd"
   xmlns:inkscape="http://www.inkscape.org/namespaces/inkscape"
   version="1.1"
   id="Layer_1"
   x="0px"
   y="0px"
   width="64px"
   height="64px"
   viewBox="0 0 64 64"
   enable-background="new 0 0 64 64"
   xml:space="preserve"
   inkscape:version="0.48.5 r10040"
   sodipodi:docname="Earth.svg"
   inkscape:export-filename="C:\Users\khmer\svg\New\Earth.png"
   inkscape:export-xdpi="29.614395"
   inkscape:export-ydpi="29.614395"><title
     id="title6123">Earth</title><metadata
     id="metadata6099"><rdf:RDF><cc:Work
         rdf:about=""><dc:format>image/svg+xml</dc:format><dc:type
           rdf:resource="http://purl.org/dc/dcmitype/StillImage" /><dc:title>Earth</dc:title><cc:license
           rdf:resource="GPL" /><dc:creator><cc:Agent><dc:title>Anastassiaya Bekassova</dc:title></cc:Agent></dc:creator></cc:Work></rdf:RDF></metadata><defs
     id="defs6097" /><sodipodi:namedview
     pagecolor="#ffffff"
     bordercolor="#666666"
     borderopacity="1"
     objecttolerance="10"
     gridtolerance="10"
     guidetolerance="10"
     inkscape:pageopacity="0"
     inkscape:pageshadow="2"
     inkscape:window-width="1920"
     inkscape:window-height="1138"
     id="namedview6095"
     showgrid="false"
     inkscape:zoom="5.2149125"
     inkscape:cx="89.339752"
     inkscape:cy="71.424235"
     inkscape:window-x="-8"
     inkscape:window-y="-8"
     inkscape:window-maximized="1"
     inkscape:current-layer="Layer_1" /><g
     id="g6049"><polygon
       fill="none"
       points="21.879,19.291 22.061,18.582 21.532,18.456 20.948,18.734 21.309,19.472 "
       id="polygon6051" /><polygon
       fill="none"
       points="23.465,21.043 22.728,21.043 22.213,21.599 22.129,22.155 22.52,22.364 "
       id="polygon6053" /><polygon
       fill="none"
       points="24.048,20.862 24.048,20.403 23.854,20.403 23.854,20.139 22.979,20.139 22.338,20.403 22.213,20.723 22.714,20.862 "
       id="polygon6055" /><polygon
       fill="none"
       points="24.285,20.333 24.285,20.862 24.744,20.751 "
       id="polygon6057" /><path
       fill="none"
       d="M53.799,27.251c-0.028-0.127-0.058-0.253-0.088-0.38l-0.07,0.082L53.799,27.251z"
       id="path6059" /><polygon
       fill="none"
       points="20.216,15.23 20.216,14.883 19.418,14.883 19.376,15.05 18.889,15.05 18.889,15.091 18.889,15.536 19.987,15.536 "
       id="polygon6061" /><polygon
       fill="none"
       points="25.746,22.212 25.746,21.78 24.898,21.53 24.842,21.53 24.842,21.932 25.036,22.212 "
       id="polygon6063" /><path
       fill="none"
       d="M51.055,23.323l-0.112-1.029l-0.597,0.326l-0.321,1.258l-0.862-0.918l-0.035-0.867l-0.833-0.717l-0.308-0.306 h-0.966l0.306,0.861l1.162,0.648l0.202,0.214l-0.251,0.126l0.011,0.682l-0.566,0.236L47.4,23.731l-0.302-0.428l0.786,0.042 l0.212-0.286l-1.742-1.175l-0.132-0.5l-0.708,0.64l-0.718-0.147l-1.092,1.419l-0.214,0.556l-0.699,0.063l-1.034,0.006l-0.618-0.289 l-0.181-1.228l0.222-0.585l1.051-0.23l1.147,0.23l0.14-0.635l-0.487-0.115l0.167-0.988l1.154-0.181l0.807-1.14l0.833-0.14 l0.752,0.111h0.277l-0.152-1.07l-0.915,0.369l-0.321-0.8l-0.531-0.074l-0.099-0.549l0.433-0.471l1.029-0.403l0.265-0.474 C42.797,11.796,37.642,9.688,32,9.688c-4.896,0-9.425,1.589-13.109,4.273l1.125-0.009l0.501,0.278l0.945,0.204l0.073,0.371 l1.503,0.056l-0.204-0.482L21.5,14.34l0.315-0.296l-0.11-0.353h-1.206l1.316-0.983h1.261l0.593,0.816l0.984,0.056l0.593-0.576 l0.446,0.223l-0.817,0.798c0,0-1.13,0.019-1.075,0.019c0.056,0,0.093,0.778,0.093,0.778l1.371-0.038l0.148-0.37l0.945-0.056 l0.111-0.556l-0.556-0.094l0.185-0.5l0.426-0.129l1.483,0.074l-0.817,0.742l0.132,0.574l0.853,0.13l-0.056-1.038l0.816-0.427 l1.446-0.167l2.095,0.928v0.797l0.668,0.167l-0.334,0.63h-0.945l-0.28,0.723l-2.162-0.51l1.699-0.905l-0.648-0.55l-1.465,0.185 l-0.128,0.132l-0.005-0.002l-0.023,0.032l-0.421,0.438l-0.697,0.059l0.056,0.348l0.244,0.101l-0.01,0.115l-0.567,0.081 l-0.042,0.329l-0.542,0.028l-0.098-0.654l-0.973,0.296l-1.989,1.164l0.224,0.819l0.556,0.362l1.112,0.154v1.264l0.514-0.083 l0.474-0.988l1.183-0.375v-1.516l0.658-0.497l1.59,0.375l-0.112,1.001h0.427l1.168-0.574l0.056,1.315l0.852,0.519l-0.036,0.78 l-0.815,0.278l0.056,0.258l0.982,0.447l-0.019,0.537l-0.285,0.024c-0.001-0.009-0.003-0.015-0.003-0.015l-1.239-0.382L31.1,20.208 h-0.001l0.362-0.249v-0.362l-0.39-0.098l-0.097,0.334l-0.684,0.105l-0.068-0.023v0.034l-0.236,0.036l-0.193-0.39l-0.223-0.098 h-0.487l-0.221,0.181v0.403l0.417,0.139l0.411,0.058l-0.092,0.041l-0.375,0.416l-0.166-0.208l-0.362-0.096l-0.988,0.93l0.129,0.106 l-1.459,0.808l-1.372,1.428l-0.094,0.636l-1.376,0.904l-0.682,0.686l0.075,1.372l-0.946-0.44l0.007-0.803l-2.632,0.001l-1.363,0.69 l-0.592,1.091l-0.234,0.865l0.383,0.839l1.074,0.131l1.707-1.141l0.149,0.565l-0.521,0.984l1.299,0.222l0.129,2.006l1.78,0.302 l1.131-1.307l1.373,0.279l0.482,0.671l1.316-0.078l0.037-0.39l0.723,0.353l0.816,1.278l1.409,0.02l0.52,0.909l0.074,1.111 l1.558,0.594l1.965,0.019l0.575,0.944l0.871,0.279l-0.167,0.779l-0.955,1.214l-0.278,2.685l-0.862,0.682l-1.279-0.039l-0.427,0.741 l0.316,1.392l-1.391,1.78l-0.445,0.816l-1.326,0.637l-0.872,0.132l-0.036,0.37l0.612,0.175l-0.074,0.398l-0.548,0.528l0.333,0.418 l0.66,0.019l-0.037,0.51l-0.175,0.5l-0.056,0.408l0.976,0.822l-0.13,0.427l-1.328-0.025l-1.321-1.153l-1.029-1.809l0.144-1.747 l-0.779-1.039l0.315-1.761l-0.463-0.13v-3.819c0,0-1.298-0.984-1.372-0.984c-0.074,0-0.687-0.166-0.687-0.166l-0.129-0.723 l-1.688-2.114l0.167-0.76l0.055-1.242l1.167-0.816l-0.167-1.391l-1.705-0.128l-1.335-1.521l-0.945-0.258l-0.612-0.112l0.074-0.556 l-0.779-0.111v0.315l-1.947-0.482l-0.784-1.199l0.319-0.581l-1.233-1.799l-0.211-1.316h-0.5l0.167,1.279l0.853,1.316l-0.093,0.52 l-0.723-0.111l-0.889-1.517v-1.765l-0.927-0.446v-1.27C10.323,25.951,9.688,28.903,9.688,32c0,12.303,10.009,22.313,22.313,22.313 c6.975,0,13.21-3.219,17.305-8.248h-0.736v-1.483l-0.851-1.146v-1.784l-0.65-0.647l-0.056-0.742l0.825-1.576l-1.566-2.763 l0.186-1.874l-1.409-0.147l-0.519-0.519h-0.947l-0.481,0.445h-1.668l-0.056,0.148h-0.928l-2.131-2.428l0.018-1.892l0.352-0.129 l0.131-0.724h-0.5l-0.205-0.76l2.466-1.78v-1.261l1.207-0.67l0.488,0.049h0.994l0.777-0.417l2.503-0.195v1.28l1.976,0.501 l0.389,0.278h0.362V25.13l1.14-0.111l1.084,0.807h1.78l0.125-0.114c-0.177-0.601-0.378-1.19-0.604-1.769l-1.163,0.02L51.055,23.323 z M42.265,17.593l0.205-0.314l0.732-0.148l0.185,0.891l0.39,0.63l0.259,0.298l0.472,0.184l-0.444,0.529l-0.862,0.083h-0.649 l0.074-0.769l0.539-0.112l-0.046-0.361l-0.502-0.315l-0.352-0.241V17.593z M41.061,18.985l0.445-0.714l0.601-0.139l0.428,0.186 l-0.038,0.482l-0.917,0.649h-0.519V18.985z M28.938,21.729l-0.465,0.039l0.025-0.322l0.208-0.259l0.279,0.219L28.938,21.729z M30.567,21.159l-0.317,0.027l-0.064,0.307l-0.245,0.152l-0.392,0.033c-0.013-0.092-0.022-0.162-0.022-0.162h-0.152v-0.33h0.639 l0.132-0.34l0.254-0.005l0.291,0.06L30.567,21.159z"
       id="path6065" /><path
       fill="none"
       d="M51.731,22.032v0.986l0.433-0.06l0.231,0.009c-0.165-0.37-0.339-0.734-0.523-1.094L51.731,22.032z"
       id="path6067" /><path
       fill="none"
       d="M20.197,16.579c0,0,0.042-0.486,0-0.486c-0.042,0-0.529,0.083-0.529,0.083l-0.779,0.222l0.209,0.25 L20.197,16.579z"
       id="path6069" /><polygon
       fill="none"
       points="25.635,21.186 25.293,20.974 25.092,21.186 25.362,21.411 "
       id="polygon6071" /><path
       fill="none"
       d="M23.911,21.78l0.416-0.077l0.334-0.215v-0.445h-0.75C23.911,21.113,23.911,21.78,23.911,21.78z"
       id="path6073" /><path
       fill="none"
       d="M54.607,23.018l-0.074-0.411l-0.132-0.054c0.064,0.153,0.122,0.31,0.184,0.465H54.607z"
       id="path6075" /><polygon
       fill="none"
       points="23.911,22.169 23.576,22.198 23.465,22.684 24.174,22.684 24.494,22.364 24.494,21.932 23.98,22.002 "
       id="polygon6077" /><path
       fill="none"
       d="M13.157,20.073c-0.316,0.498-0.614,1.007-0.891,1.53l0.926-1.125L13.157,20.073z"
       id="path6079" /><path
       fill="none"
       d="M47.259,18.276l0.096,0.319l1.531,0.014l0.438-0.652c-0.351-0.432-0.72-0.849-1.102-1.254l-0.004,1.086 L47.259,18.276z"
       id="path6081" /><polygon
       points="43.12,18.503 43.166,18.864 42.626,18.976 42.553,19.745 43.202,19.745 44.064,19.662 44.508,19.133 44.036,18.949 43.777,18.651 43.387,18.021 43.202,17.13 42.47,17.279 42.265,17.593 42.265,17.947 42.617,18.188 "
       id="polygon6083"
       style="fill:#0000ff" /><polygon
       points="42.497,18.799 42.535,18.317 42.107,18.132 41.506,18.271 41.061,18.985 41.061,19.448 41.58,19.448 "
       id="polygon6085"
       style="fill:#0000ff" /><path
       d="m 56.306,31.749 c -0.007,-0.711 -0.043,-1.417 -0.11,-2.112 -0.225,-2.317 -0.779,-4.538 -1.61,-6.62 -0.062,-0.155 -0.119,-0.312 -0.184,-0.465 -1.106,-2.613 -2.66,-4.992 -4.56,-7.045 -0.124,-0.134 -0.251,-0.266 -0.378,-0.396 -0.36,-0.373 -0.728,-0.737 -1.111,-1.086 C 44.032,10.09 38.291,7.688 32,7.688 c -6.345,0 -12.127,2.445 -16.461,6.44 -1.009,0.931 -1.938,1.947 -2.779,3.035 C 9.584,21.271 7.688,26.417 7.688,32 c 0,13.406 10.907,24.313 24.313,24.313 9.43,0 17.617,-5.4 21.647,-13.267 0.862,-1.682 1.533,-3.475 1.985,-5.354 0.115,-0.476 0.214,-0.956 0.3,-1.442 0.245,-1.381 0.379,-2.8 0.379,-4.25 0.001,-0.084 -0.005,-0.167 -0.006,-0.251 z m -4.575,-9.717 0.141,-0.158 c 0.184,0.359 0.358,0.724 0.523,1.094 l -0.231,-0.009 -0.433,0.06 z m -3.514,-4.242 0.291637,-1.848213 c 0.382,0.405 1.004736,1.380823 1.356736,1.812823 L 48.885,18.61 47.354,18.596 47.258,18.277 z m 5.063,8.037 -1.78,0 -1.084,-0.807 -1.14,0.111 0,0.696 -0.362,0 -0.389,-0.278 -1.976,-0.501 0,-1.28 -2.503,0.195 -0.777,0.417 -0.994,0 -0.488,-0.049 -1.207,0.67 0,1.261 -2.466,1.78 c -0.0946,1.146302 0.219152,1.470117 0.222,1.613 l -0.018,1.892 2.131,2.428 0.928,0 0.056,-0.148 1.668,0 0.481,-0.445 0.947,0 0.519,0.519 1.409,0.147 -0.186,1.874 1.566,2.763 -0.825,1.576 0.056,0.742 0.65,0.647 0,1.784 0.851,1.146 0,1.483 1.685153,0 c -4.095,5.03 -11.14356,9.199153 -18.11856,9.199153 C 19.832593,55.262153 8.9422373,44.303 8.9422373,32 c 0,-3.097 0.4558743,-6.986521 1.9843897,-9.477763 l 0.06298,0.145642 L 12.267,21.603 c 0.277,-0.523 0.574,-1.033 0.891,-1.53 L 12.583831,20.07122 12.268,21.603 c -0.287,0.542 -1.847953,0.118765 -2.090953,0.687765 L 11.47,24.538 l 0.927,0.446 0,1.765 0.889,1.517 0.723,0.111 0.093,-0.52 -0.853,-1.316 -0.167,-1.279 0.5,0 0.211,1.316 1.233,1.799 -0.319,0.581 0.784,1.199 1.947,0.482 0,-0.315 0.779,0.111 -0.074,0.556 0.612,0.112 0.945,0.258 1.335,1.521 1.705,0.128 0.167,1.391 -1.167,0.816 -0.055,1.242 -0.167,0.76 1.688,2.114 0.129,0.723 c 0,0 0.612,0.166 0.687,0.166 0.074,0 1.372,0.984 1.372,0.984 l 0,3.819 0.463,0.13 -0.315,1.761 0.779,1.039 -0.144,1.747 1.029,1.809 1.321,1.153 1.328,0.025 0.13,-0.427 -0.976,-0.822 0.056,-0.408 0.175,-0.5 0.037,-0.51 -0.66,-0.019 -0.333,-0.418 0.548,-0.528 0.074,-0.398 -0.612,-0.175 0.036,-0.37 0.872,-0.132 1.326,-0.637 0.445,-0.816 1.391,-1.78 -0.316,-1.392 0.427,-0.741 1.279,0.039 0.862,-0.682 0.278,-2.685 0.955,-1.214 0.167,-0.779 -0.871,-0.279 -0.575,-0.944 -1.965,-0.019 -1.558,-0.594 -0.074,-1.111 -0.52,-0.909 -1.409,-0.02 -0.814,-1.279 -0.723,-0.353 -0.037,0.39 -1.316,0.078 -0.482,-0.671 -1.373,-0.279 -1.131,1.307 -1.78,-0.302 -0.129,-2.006 -1.299,-0.222 0.521,-0.984 -0.149,-0.565 -1.707,1.141 -1.074,-0.131 -0.383,-0.839 0.234,-0.865 0.592,-1.091 1.363,-0.69 2.632,-0.001 -0.007,0.803 0.946,0.44 -0.075,-1.372 0.682,-0.686 1.376,-0.904 0.094,-0.636 1.372,-1.428 1.459,-0.808 -0.129,-0.106 0.988,-0.93 0.362,0.096 0.166,0.208 0.375,-0.416 0.092,-0.041 -0.411,-0.058 -0.417,-0.139 0,-0.4 0.221,-0.181 0.487,0 0.223,0.098 0.193,0.39 0.236,-0.036 0,-0.034 0.068,0.023 0.684,-0.105 0.097,-0.334 0.39,0.098 0,0.362 -0.362,0.249 0.001,0 0.053,0.397 1.239,0.382 c 0,0 10e-4,0.005 0.003,0.015 l 0.285,-0.024 0.019,-0.537 -0.982,-0.447 -0.056,-0.258 0.815,-0.278 0.036,-0.78 -0.852,-0.519 -0.056,-1.315 -1.168,0.574 -0.426,0 0.112,-1.001 -1.59,-0.375 -0.658,0.497 0,1.516 -1.183,0.375 -0.474,0.988 -0.514,0.083 0,-1.264 -1.112,-0.154 -0.556,-0.362 -0.224,-0.819 1.989,-1.164 0.973,-0.296 0.098,0.654 0.542,-0.028 0.042,-0.329 0.567,-0.081 0.01,-0.115 -0.244,-0.101 -0.056,-0.348 0.697,-0.059 0.421,-0.438 0.023,-0.032 0.005,0.002 0.128,-0.132 1.465,-0.185 0.648,0.55 -1.699,0.905 2.162,0.51 0.28,-0.723 0.945,0 0.334,-0.63 -0.668,-0.167 0,-0.797 -2.095,-0.928 -1.446,0.167 -0.816,0.427 0.056,1.038 -0.853,-0.13 -0.132,-0.574 0.817,-0.742 -1.483,-0.074 -0.426,0.129 -0.185,0.5 0.556,0.094 -0.111,0.556 -0.945,0.056 -0.148,0.37 -1.371,0.038 c 0,0 -0.038,-0.778 -0.093,-0.778 -0.055,0 1.075,-0.019 1.075,-0.019 l 0.817,-0.798 -0.446,-0.223 -0.593,0.576 -0.984,-0.056 -0.593,-0.816 -1.261,0 -1.316,0.983 1.206,0 0.11,0.353 -0.313,0.291 1.335,0.037 0.204,0.482 -1.503,-0.056 -0.073,-0.371 -0.945,-0.204 -0.501,-0.278 -1.735169,-0.668966 c 3.683,-2.683 8.686576,-4.4065933 13.582576,-4.4065933 5.642,0 11.75097,2.5554943 15.68397,6.0204943 L 46.465,15.736 l -1.029,0.403 -0.433,0.471 0.099,0.549 0.531,0.074 0.321,0.8 0.915,-0.369 0.152,1.07 -0.277,0 -0.752,-0.111 -0.833,0.14 -0.807,1.14 -1.154,0.181 -0.167,0.988 0.487,0.115 -0.14,0.635 -1.147,-0.23 -1.051,0.23 -0.222,0.585 0.181,1.228 0.618,0.289 1.034,-0.006 0.699,-0.063 0.214,-0.556 1.092,-1.419 0.718,0.147 0.708,-0.64 0.132,0.5 1.742,1.175 -0.212,0.286 -0.786,-0.042 c 0.182795,0.475449 0.42133,0.350444 0.785,0.534 l 0.566,-0.236 -0.011,-0.682 0.251,-0.126 -0.202,-0.214 -1.162,-0.648 -0.306,-0.861 0.966,0 0.308,0.306 0.833,0.717 0.035,0.867 0.862,0.918 0.321,-1.258 0.597,-0.326 0.112,1.029 0.583,0.64 1.163,-0.02 c 0.225,0.579 0.427,1.168 0.604,1.769 z m 0.361,1.126 0.07,-0.082 c 0.03,0.126 0.06,0.252 0.088,0.38 z"
       id="path6091"
       style="fill:#0000ff"
       inkscape:connector-curvature="0"
       sodipodi:nodetypes="cccccccsccsscccccccccccccccccccccccccccccccccccccccccccccccccccccssccccccccccccccccccccccccccccccccccscccccccccccccccccccccccccccccccccccccccccccccccccccccccccccccccccccccccccccccccccccccccccccccccccccccccccccccccccccccccccccccccccccccccccccccccccccccsccccccccccccccccccsccccccccccccccccccccccccccccccccccccccccccccccccccccccc" /></g></svg>