<?xml version="1.0" encoding="UTF-8" standalone="no"?>
<!-- Generated by IcoMoon.io -->

<svg
   xmlns:dc="http://purl.org/dc/elements/1.1/"
   xmlns:cc="http://creativecommons.org/ns#"
   xmlns:rdf="http://www.w3.org/1999/02/22-rdf-syntax-ns#"
   xmlns:svg="http://www.w3.org/2000/svg"
   xmlns="http://www.w3.org/2000/svg"
   xmlns:xlink="http://www.w3.org/1999/xlink"
   xmlns:sodipodi="http://sodipodi.sourceforge.net/DTD/sodipodi-0.dtd"
   xmlns:inkscape="http://www.inkscape.org/namespaces/inkscape"
   version="1.1"
   width="32"
   height="32"
   viewBox="0 0 32 32"
   id="svg2"
   inkscape:version="0.48.5 r10040"
   sodipodi:docname="eye.svg">
  <metadata
     id="metadata11">
    <rdf:RDF>
      <cc:Work
         rdf:about="">
        <dc:format>image/svg+xml</dc:format>
        <dc:type
           rdf:resource="http://purl.org/dc/dcmitype/StillImage" />
      </cc:Work>
    </rdf:RDF>
  </metadata>
  <defs
     id="defs9">
    <linearGradient
       inkscape:collect="always"
       xlink:href="#linearGradient3832-4"
       id="linearGradient3891"
       gradientUnits="userSpaceOnUse"
       gradientTransform="translate(-13.904963,17.452481)"
       x1="26.587048"
       y1="14.835155"
       x2="15.791791"
       y2="5.9762368" />
    <linearGradient
       inkscape:collect="always"
       id="linearGradient3832-4">
      <stop
         style="stop-color:#500092;stop-opacity:1"
         offset="0"
         id="stop3834-8" />
      <stop
         style="stop-color:#d2d2d2;stop-opacity:1"
         offset="1"
         id="stop3836-8" />
    </linearGradient>
    <linearGradient
       inkscape:collect="always"
       xlink:href="#linearGradient3832-4"
       id="linearGradient3899"
       x1="29.016949"
       y1="22.61017"
       x2="2.9830508"
       y2="13.118644"
       gradientUnits="userSpaceOnUse" />
  </defs>
  <sodipodi:namedview
     pagecolor="#ffffff"
     bordercolor="#666666"
     borderopacity="1"
     objecttolerance="10"
     gridtolerance="10"
     guidetolerance="10"
     inkscape:pageopacity="0"
     inkscape:pageshadow="2"
     inkscape:window-width="1920"
     inkscape:window-height="1018"
     id="namedview7"
     showgrid="false"
     inkscape:zoom="3.6875"
     inkscape:cx="44.357295"
     inkscape:cy="-2.8213568"
     inkscape:window-x="-8"
     inkscape:window-y="-8"
     inkscape:window-maximized="1"
     inkscape:current-layer="svg2" />
  <g
     id="icomoon-ignore" />
  <g
     id="g3870">
    <path
       style="fill:url(#linearGradient3899);fill-opacity:1;stroke:#0000c8;stroke-opacity:1;stroke-width:0.20000000000000001;stroke-miterlimit:4;stroke-dasharray:none;stroke-linejoin:round"
       d="M 16 10 C 9.457 10 3.649 13.142 0 18 C 3.649 22.858 9.457 26 16 26 C 22.543 26 28.351 22.858 32 18 C 28.351 13.142 22.543 10 16 10 z M 16 12.4375 C 17.446 12.4375 18.89125 12.5985 20.28125 12.9375 C 21.63025 13.2655 22.9485 13.77325 24.1875 14.40625 C 26.1575 15.41325 27.92425 16.7845 29.40625 18.4375 C 27.92425 20.0905 26.1565 21.46275 24.1875 22.46875 C 23.1765 22.98475 22.12025 23.40275 21.03125 23.71875 C 21.65225 22.77375 22 21.6535 22 20.4375 C 22 17.1235 19.314 14.4375 16 14.4375 C 12.686 14.4375 10 17.1235 10 20.4375 C 10 21.6535 11.643062 22.811022 10.96875 23.71875 C 10.292732 24.628775 8.8235 22.98475 7.8125 22.46875 C 5.8425 21.46175 4.07575 20.0905 2.59375 18.4375 C 4.07575 16.7845 5.8435 15.41225 7.8125 14.40625 C 9.0515 13.77325 10.36875 13.2665 11.71875 12.9375 C 13.10875 12.5995 14.554 12.4375 16 12.4375 z M 13.84375 15.90625 C 14.94875 15.90625 15.84375 16.80125 15.84375 17.90625 C 15.84375 19.01125 14.94875 19.90625 13.84375 19.90625 C 12.73875 19.90625 11.84375 19.01125 11.84375 17.90625 C 11.84375 16.80125 12.73875 15.90625 13.84375 15.90625 z "
       id="path3828" />
  </g>
</svg>
