<?xml version="1.0" encoding="UTF-8" standalone="no"?>
<!-- Generator: Adobe Illustrator 16.0.4, SVG Export Plug-In . SVG Version: 6.00 Build 0) -->

<svg
   xmlns:dc="http://purl.org/dc/elements/1.1/"
   xmlns:cc="http://creativecommons.org/ns#"
   xmlns:rdf="http://www.w3.org/1999/02/22-rdf-syntax-ns#"
   xmlns:svg="http://www.w3.org/2000/svg"
   xmlns="http://www.w3.org/2000/svg"
   xmlns:xlink="http://www.w3.org/1999/xlink"
   xmlns:sodipodi="http://sodipodi.sourceforge.net/DTD/sodipodi-0.dtd"
   xmlns:inkscape="http://www.inkscape.org/namespaces/inkscape"
   version="1.1"
   id="Layer_1"
   x="0px"
   y="0px"
   width="512px"
   height="512px"
   viewBox="0 0 512 512"
   enable-background="new 0 0 512 512"
   xml:space="preserve"
   inkscape:version="0.48.5 r10040"
   sodipodi:docname="folder_nempty.svg"
   inkscape:export-filename="C:\Users\khmer\svg\New\folder.png"
   inkscape:export-xdpi="5.5307264"
   inkscape:export-ydpi="5.5307264"><title
     id="title5414">Folder</title><metadata
     id="metadata4642"><rdf:RDF><cc:Work
         rdf:about=""><dc:format>image/svg+xml</dc:format><dc:type
           rdf:resource="http://purl.org/dc/dcmitype/StillImage" /><dc:title>Folder</dc:title><dc:creator><cc:Agent><dc:title>Anastassiya Bekassova</dc:title></cc:Agent></dc:creator><cc:license
           rdf:resource="GPL" /></cc:Work></rdf:RDF></metadata><defs
     id="defs4640"><linearGradient
       id="linearGradient5472"><stop
         style="stop-color:#0000c6;stop-opacity:0.36125654;"
         offset="0"
         id="stop5474" /><stop
         style="stop-color:#000088;stop-opacity:0;"
         offset="1"
         id="stop5476" /></linearGradient><linearGradient
       inkscape:collect="always"
       xlink:href="#linearGradient5472"
       id="linearGradient5478"
       x1="417.64844"
       y1="352.07401"
       x2="48.706474"
       y2="218.61061"
       gradientUnits="userSpaceOnUse" /></defs><sodipodi:namedview
     pagecolor="#ffffff"
     bordercolor="#666666"
     borderopacity="1"
     objecttolerance="10"
     gridtolerance="10"
     guidetolerance="10"
     inkscape:pageopacity="0"
     inkscape:pageshadow="2"
     inkscape:window-width="1920"
     inkscape:window-height="1138"
     id="namedview4638"
     showgrid="false"
     inkscape:zoom="5.2149125"
     inkscape:cx="405.70503"
     inkscape:cy="339.62387"
     inkscape:window-x="-8"
     inkscape:window-y="-8"
     inkscape:window-maximized="1"
     inkscape:current-layer="Layer_1" /><path
     d="M 491.72582,173.6434 462.42473,174.02691 463,116 c 0.10905,-10.99946 -9,-20 -20,-20 L 248,96 222,54 C 218,48 213,44 206,44 L 61,44 C 50,44 42,53 42,64 l 0,106 -22,3.25424 C 8.1291659,175.01017 -3,181 0,194 l 42,192 c 2,9 10,16 19,16 l 382,0 c 9,0 18,-6 20,-15 l 46,-193 c 3,-13 -5.27521,-20.51365 -17.27418,-20.3566 z M 63.644068,62.38983 209.18644,63.474576 235.72881,109.18644 c 10.50848,3.83051 5.11909,1.87068 12.11865,1.94915 l 196.19308,-0.89863 0.19176,63.08308 -41.68357,0.74776 -18.31886,-0.1356 -272.14936,-0.13559 -19.038137,-0.54237 -29.398305,-1.08475 z M 438.84746,383.69491 61.813559,381.52542 21.220339,193.81356 488.8644,192.72881 z"
     id="path4636"
     style="fill:#000088;fill-opacity:1"
     inkscape:connector-curvature="0"
     sodipodi:nodetypes="scssccssscsccssccscccsccccccccccccc"
     inkscape:export-filename="C:\Users\khmer\svg\New\folder_nempty.png"
     inkscape:export-xdpi="5.5307264"
     inkscape:export-ydpi="5.5307264" /><path
     style="fill:#000088;stroke:#000089;stroke-width:1px;stroke-linecap:butt;stroke-linejoin:miter;stroke-opacity:1;fill-opacity:1"
     d="M 121.09375 126.53125 C 118.64582 126.57866 113.48027 126.92446 111.28125 128.84375 C 109.09735 130.74984 107.45816 131.03389 107.59375 137 C 107.72934 142.9661 106.83262 153.09534 107.375 175.875 L 410.03125 175.71875 L 410.84375 135.59375 C 410.84375 135.59375 409.86443 130.37597 407.40625 129.21875 C 400.15867 125.80686 394.375 127.09375 394.375 127.09375 L 122.4375 126.53125 C 122.4375 126.53125 121.90973 126.51545 121.09375 126.53125 z M 117.53125 136.03125 L 399.96875 136.09375 L 398.75 173.5625 L 117.09375 174.0625 L 117.53125 136.03125 z "
     id="path5418" /><path
     style="fill:url(#linearGradient5478);fill-opacity:1.0;stroke:#000088;stroke-width:15.34062194999999900;stroke-miterlimit:4;stroke-opacity:1;stroke-dasharray:none;stroke-dashoffset:0"
     d="M 245.95342,382.43812 C 144.82669,381.83223 62.051043,381.29472 62.007529,381.24366 61.713001,380.89802 21.605595,194.40496 21.786807,194.22369 c 0.265086,-0.26516 373.732393,-1.20412 429.330013,-1.0794 l 37.40427,0.0839 -24.93534,95.20774 -24.9353,95.20773 -4.41514,-0.052 c -2.42831,-0.0286 -87.15516,-0.54768 -188.28189,-1.15358 l 0,0 z"
     id="path5438"
     inkscape:connector-curvature="0" /></svg>