<?xml version="1.0" encoding="UTF-8" standalone="no"?>
<!-- Created with Inkscape (http://www.inkscape.org/) -->

<svg
   xmlns:dc="http://purl.org/dc/elements/1.1/"
   xmlns:cc="http://creativecommons.org/ns#"
   xmlns:rdf="http://www.w3.org/1999/02/22-rdf-syntax-ns#"
   xmlns:svg="http://www.w3.org/2000/svg"
   xmlns="http://www.w3.org/2000/svg"
   xmlns:sodipodi="http://sodipodi.sourceforge.net/DTD/sodipodi-0.dtd"
   xmlns:inkscape="http://www.inkscape.org/namespaces/inkscape"
   width="64"
   height="64"
   id="svg6288"
   version="1.1"
   inkscape:version="0.48.3.1 r9886"
   sodipodi:docname="languages.svg">
  <title
     id="title3037">Languages</title>
  <defs
     id="defs6290" />
  <sodipodi:namedview
     id="base"
     pagecolor="#ffffff"
     bordercolor="#666666"
     borderopacity="1.0"
     inkscape:pageopacity="0.0"
     inkscape:pageshadow="2"
     inkscape:zoom="3.959798"
     inkscape:cx="-3.3374324"
     inkscape:cy="20.366358"
     inkscape:document-units="px"
     inkscape:current-layer="layer1"
     showgrid="false"
     inkscape:window-width="1423"
     inkscape:window-height="906"
     inkscape:window-x="65"
     inkscape:window-y="24"
     inkscape:window-maximized="1" />
  <metadata
     id="metadata6293">
    <rdf:RDF>
      <cc:Work
         rdf:about="">
        <dc:format>image/svg+xml</dc:format>
        <dc:type
           rdf:resource="http://purl.org/dc/dcmitype/StillImage" />
        <dc:title>Languages</dc:title>
        <dc:creator>
          <cc:Agent>
            <dc:title>Nastya Bekassova</dc:title>
          </cc:Agent>
        </dc:creator>
        <dc:rights>
          <cc:Agent>
            <dc:title>Nastya Bekassova</dc:title>
          </cc:Agent>
        </dc:rights>
        <dc:description>More Air for YAGF icon set</dc:description>
        <dc:source>symmetrica.net/~bekassova/</dc:source>
        <cc:license
           rdf:resource="http://www.gnu.org/copyleft/gpl.html" />
      </cc:Work>
    </rdf:RDF>
  </metadata>
  <g
     inkscape:label="Layer 1"
     inkscape:groupmode="layer"
     id="layer1"
     transform="translate(0,-988.36218)">
    <path
       inkscape:connector-curvature="0"
       style="font-size:medium;font-style:normal;font-variant:normal;font-weight:normal;font-stretch:normal;text-indent:0;text-align:start;text-decoration:none;line-height:normal;letter-spacing:normal;word-spacing:normal;text-transform:none;direction:ltr;block-progression:tb;writing-mode:lr-tb;text-anchor:start;baseline-shift:baseline;color:#000000;fill:#000092;fill-opacity:0;fill-rule:nonzero;stroke:#000092;stroke-width:1.08003104;stroke-opacity:1;marker:none;visibility:visible;display:inline;overflow:visible;enable-background:accumulate;font-family:Sans;-inkscape-font-specification:Sans"
       d="m 28.494153,1012.4925 c -1.102899,0.122 -0.447028,0.8263 -0.686949,2.3828 0,10.4383 0.07068,20.0288 0.07068,30.467 1.865972,0 1.340043,0 3.206016,0 -0.009,-10.6759 0.127112,-21.1226 0.09585,-31.7981 -0.09986,-1.2983 -1.742705,-1.0159 -2.685598,-1.0517 z"
       id="path2990-5"
       sodipodi:nodetypes="cccccc"
       inkscape:export-filename="/home/parallels/Downloads/yagf-0.9.4/src/isrc/MAFY/path5437.png"
       inkscape:export-xdpi="52.844036"
       inkscape:export-ydpi="52.844036" />
    <path
       style="font-size:medium;font-style:normal;font-variant:normal;font-weight:normal;font-stretch:normal;text-indent:0;text-align:start;text-decoration:none;line-height:normal;letter-spacing:normal;word-spacing:normal;text-transform:none;direction:ltr;block-progression:tb;writing-mode:lr-tb;text-anchor:start;baseline-shift:baseline;color:#000000;fill:#000092;fill-opacity:0;fill-rule:nonzero;stroke:#000092;stroke-width:1.08003104;stroke-opacity:1;marker:none;visibility:visible;display:inline;overflow:visible;enable-background:accumulate;font-family:Sans;-inkscape-font-specification:Sans"
       d="m 20.932814,1006.3319 c -1.314954,-0.2069 -1.307056,0.6542 -1.252426,2.3169 0.342781,10.4335 0.141368,20.6866 0.141368,31.1248 1.865973,0 1.76415,0.066 3.630123,0.066 -0.009,-10.6759 0.197797,-21.7805 0.166533,-32.4558 -0.09986,-1.2983 -1.742706,-1.016 -2.685598,-1.0517 z"
       id="path2990"
       inkscape:connector-curvature="0"
       sodipodi:nodetypes="cscccc"
       inkscape:export-filename="/home/parallels/Downloads/yagf-0.9.4/src/isrc/MAFY/path5437.png"
       inkscape:export-xdpi="52.844036"
       inkscape:export-ydpi="52.844036" />
    <path
       style="font-size:medium;font-style:normal;font-variant:normal;font-weight:normal;font-stretch:normal;text-indent:0;text-align:start;text-decoration:none;line-height:normal;letter-spacing:normal;word-spacing:normal;text-transform:none;direction:ltr;block-progression:tb;writing-mode:lr-tb;text-anchor:start;baseline-shift:baseline;color:#000000;fill:#000092;fill-opacity:0;fill-rule:nonzero;stroke:none;stroke-width:1;marker:none;visibility:visible;display:inline;overflow:visible;enable-background:accumulate;font-family:Sans;-inkscape-font-specification:Sans"
       d="m 21.715366,1005.8064 c 1.392085,-0.5969 1.049686,0.7825 1.079598,1.5561 0,9.8752 -0.179932,20.1785 -0.179932,30.0537 -1.119583,0 -1.119583,0 -2.239167,0 0,-10.2451 0,-21.0111 0,-31.2563 0.122993,-0.9944 0.690251,-0.2572 1.339501,-0.3535 z"
       id="path2988"
       inkscape:connector-curvature="0"
       inkscape:export-filename="/home/parallels/Downloads/yagf-0.9.4/src/isrc/MAFY/path5437.png"
       inkscape:export-xdpi="52.844036"
       inkscape:export-ydpi="52.844036" />
    <path
       style="font-size:medium;font-style:normal;font-variant:normal;font-weight:normal;font-stretch:normal;text-indent:0;text-align:start;text-decoration:none;line-height:normal;letter-spacing:normal;word-spacing:normal;text-transform:none;direction:ltr;block-progression:tb;writing-mode:lr-tb;text-anchor:start;baseline-shift:baseline;color:#000000;fill:#1f873f;fill-opacity:0.33333333;fill-rule:nonzero;stroke:#1f873f;stroke-width:1.50676739;stroke-miterlimit:4;stroke-opacity:1;stroke-dasharray:none;marker:none;visibility:visible;display:inline;overflow:visible;enable-background:accumulate;font-family:Sans;-inkscape-font-specification:Sans"
       d="m 39.150838,1011.7649 c -2.48175,0 -4.79465,1.1942 -6.784196,2.649 0,7.1772 0,14.3544 0,21.5316 2.379167,-1.8159 5.280514,-3.3139 8.313493,-2.7526 1.983443,0.1913 3.773372,1.1403 5.426967,2.2333 3.17401,1.6548 7.158384,1.8907 10.269345,-0.061 0.606224,-0.6123 2.160766,-0.7659 2.083253,-1.8205 0,-7.0222 0,-14.0446 0,-21.0669 -2.339283,1.7491 -5.107628,3.3868 -8.100447,2.8805 -2.058216,-0.1632 -3.930849,-1.1177 -5.640013,-2.2594 -1.716731,-0.9042 -3.64952,-1.3319 -5.568402,-1.3342 z"
       id="path2986-3"
       inkscape:connector-curvature="0"
       inkscape:export-filename="/home/parallels/Downloads/yagf-0.9.4/src/isrc/MAFY/path5437.png"
       inkscape:export-xdpi="52.844036"
       inkscape:export-ydpi="52.844036" />
    <path
       style="font-size:medium;font-style:normal;font-variant:normal;font-weight:normal;font-stretch:normal;text-indent:0;text-align:start;text-decoration:none;line-height:normal;letter-spacing:normal;word-spacing:normal;text-transform:none;direction:ltr;block-progression:tb;writing-mode:lr-tb;text-anchor:start;baseline-shift:baseline;color:#000000;fill:#e7583e;fill-opacity:0.35159816;fill-rule:nonzero;stroke:#e7583f;stroke-width:1.49240792;stroke-miterlimit:4;stroke-opacity:1;stroke-dasharray:none;marker:none;visibility:visible;display:inline;overflow:visible;enable-background:accumulate;font-family:Sans;-inkscape-font-specification:Sans"
       d="m 31.818327,1005.7324 c -2.481749,0 -4.79465,1.1716 -6.784196,2.5988 0,7.0411 0,14.082 0,21.123 2.379167,-1.7813 5.280515,-3.2509 8.313493,-2.7003 1.983444,0.1877 3.773372,1.1186 5.426968,2.1909 3.174009,1.6235 7.158383,1.8547 10.269345,-0.06 0.606223,-0.6006 2.160765,-0.7512 2.083252,-1.7858 0,-6.8891 0,-13.7783 0,-20.6673 -2.339283,1.7157 -5.107627,3.3224 -8.100446,2.8258 -2.058216,-0.1601 -3.93085,-1.0965 -5.640013,-2.2165 -1.716732,-0.8871 -3.64952,-1.3067 -5.568403,-1.309 z"
       id="path2986"
       inkscape:connector-curvature="0"
       inkscape:export-filename="/home/parallels/Downloads/yagf-0.9.4/src/isrc/MAFY/path5437.png"
       inkscape:export-xdpi="52.844036"
       inkscape:export-ydpi="52.844036" />
    <path
       style="font-size:medium;font-style:normal;font-variant:normal;font-weight:normal;font-stretch:normal;text-indent:0;text-align:start;text-decoration:none;line-height:normal;letter-spacing:normal;word-spacing:normal;text-transform:none;direction:ltr;block-progression:tb;writing-mode:lr-tb;text-anchor:start;baseline-shift:baseline;color:#000000;fill:none;stroke:none;stroke-width:1;marker:none;visibility:visible;display:inline;overflow:visible;enable-background:accumulate;font-family:Sans;-inkscape-font-specification:Sans"
       d="m 32.311426,1006.7743 c 2.603458,-0.038 5.147463,0.773 7.275113,2.1466 3.256502,1.559 7.387155,1.9684 10.669024,0.2421 1.027793,-0.619 1.963527,-1.2816 1.648577,0.2187 0,5.7077 0,11.4155 0,17.1232 -2.313779,1.5103 -5.162883,2.5623 -8.024508,2.0243 -2.047477,-0.208 -3.880509,-1.1106 -5.595073,-2.1126 -3.338263,-1.5442 -7.518708,-1.8226 -10.827874,-0.054 -1.185479,0.9649 -1.473415,0.5935 -1.30297,-0.5982 0,-5.6351 0,-11.2704 0,-16.9057 1.832972,-1.1205 3.915776,-2.0797 6.157711,-2.0838 z"
       id="path5437"
       inkscape:connector-curvature="0"
       inkscape:export-xdpi="52.844036"
       inkscape:export-ydpi="52.844036" />
  </g>
</svg>
