<?xml version="1.0" encoding="UTF-8" standalone="no"?>
<!-- Created with Inkscape (http://www.inkscape.org/) -->

<svg
   xmlns:dc="http://purl.org/dc/elements/1.1/"
   xmlns:cc="http://creativecommons.org/ns#"
   xmlns:rdf="http://www.w3.org/1999/02/22-rdf-syntax-ns#"
   xmlns:svg="http://www.w3.org/2000/svg"
   xmlns="http://www.w3.org/2000/svg"
   xmlns:sodipodi="http://sodipodi.sourceforge.net/DTD/sodipodi-0.dtd"
   xmlns:inkscape="http://www.inkscape.org/namespaces/inkscape"
   width="64"
   height="64"
   id="svg6288"
   version="1.1"
   inkscape:version="0.48.5 r10040"
   sodipodi:docname="open2.svg">
  <title
     id="title3070">Open</title>
  <defs
     id="defs6290" />
  <sodipodi:namedview
     id="base"
     pagecolor="#ffffff"
     bordercolor="#666666"
     borderopacity="1.0"
     inkscape:pageopacity="0.0"
     inkscape:pageshadow="2"
     inkscape:zoom="15.839192"
     inkscape:cx="42.537109"
     inkscape:cy="26.761203"
     inkscape:document-units="px"
     inkscape:current-layer="layer1"
     showgrid="false"
     inkscape:window-width="1920"
     inkscape:window-height="1138"
     inkscape:window-x="-8"
     inkscape:window-y="-8"
     inkscape:window-maximized="1" />
  <metadata
     id="metadata6293">
    <rdf:RDF>
      <cc:Work
         rdf:about="">
        <dc:format>image/svg+xml</dc:format>
        <dc:type
           rdf:resource="http://purl.org/dc/dcmitype/StillImage" />
        <dc:title>Open</dc:title>
        <dc:creator>
          <cc:Agent>
            <dc:title>Nastya Bekassova</dc:title>
          </cc:Agent>
        </dc:creator>
        <dc:rights>
          <cc:Agent>
            <dc:title>Nastya Bekassova</dc:title>
          </cc:Agent>
        </dc:rights>
        <dc:description>More Air for YAGF icon set</dc:description>
        <dc:source>symmetrica.net/~bekassova/</dc:source>
        <cc:license
           rdf:resource="http://www.gnu.org/copyleft/gpl.html" />
      </cc:Work>
    </rdf:RDF>
  </metadata>
  <g
     inkscape:label="Layer 1"
     inkscape:groupmode="layer"
     id="layer1"
     transform="translate(0,-988.36218)">
    <g
       id="g3336"
       transform="matrix(1.5,0,0,1.5,10.357666,998.04631)">
      <g
         id="g3324">
        <line
           id="line3326"
           opacity=""
           y2="0"
           x2="0"
           y1="0"
           x1="0"
           style="stroke:#449fdb;stroke-width:1" />
      </g>
      <path
         style="font-size:medium;font-style:normal;font-variant:normal;font-weight:normal;font-stretch:normal;text-indent:0;text-align:start;text-decoration:none;line-height:normal;letter-spacing:normal;word-spacing:normal;text-transform:none;direction:ltr;block-progression:tb;writing-mode:lr-tb;text-anchor:start;baseline-shift:baseline;color:#000000;fill:#000092;fill-opacity:0;fill-rule:nonzero;stroke:#000092;stroke-width:0.66666669;stroke-miterlimit:4;stroke-opacity:1;stroke-dasharray:none;marker:none;visibility:visible;display:inline;overflow:visible;enable-background:accumulate;font-family:Sans;-inkscape-font-specification:Sans"
         d="m 0.61220764,18.35125 c 0,0 2.05296966,0.01172 3.16133956,0.04555 C 4.0085773,18.404 4.2443798,18.3645 4.4300736,18.261383 4.6157673,18.158263 4.5457735,18.064141 4.5613789,17.9593 5.3201687,12.86169 5.7286588,2.4795178 5.7286588,2.4795178 L 25.74173,2.3616667 c 0,0 0.813803,10.1736133 1.416667,15.2395833 0.01985,0.166787 0.03965,0.416583 0.09375,0.552083 0.06239,0.156264 0.348961,0.122766 0.520833,0.125 0.864795,0.01124 3.167713,0.109299 3.637691,-0.0625 0.14333,-0.05239 0.08361,0.156679 0.424556,-0.13432 0.195353,-0.166736 0.179138,-0.147827 0.148411,-0.39688 C 31.244682,11.695162 28.55428,-0.05495 28.55428,-0.05495 l -0.0312,-0.4375 -0.46875,0 -24.15625,0 -0.43765,0 -0.0312,0.4375 -3.42978036376,17.875 c 0,0 -0.008740386,0.434077 0.21884214376,0.479167 l 0.26261057,0.05203 z"
         id="path5900"
         inkscape:connector-curvature="0"
         sodipodi:nodetypes="csssccsssssscccccccscc" />
      <path
         style="font-size:medium;font-style:normal;font-variant:normal;font-weight:normal;font-stretch:normal;text-indent:0;text-align:start;text-decoration:none;line-height:normal;letter-spacing:normal;word-spacing:normal;text-transform:none;direction:ltr;block-progression:tb;writing-mode:lr-tb;text-anchor:start;baseline-shift:baseline;color:#000000;fill:#000092;fill-opacity:1;fill-rule:nonzero;stroke:none;stroke-width:0.66666669;marker:none;visibility:visible;display:inline;overflow:visible;enable-background:accumulate;font-family:Sans;-inkscape-font-specification:Sans"
         d="m 399.03125,665.21875 0,0.5 0,2 0,0.5 0.5,0 16,0 0.5,0 0,-0.5 0,-2 0,-0.5 -0.5,0 -16,0 -0.5,0 z m 1,1 15,0 0,1 -15,0 0,-1 z m -0.875,3.5 0,0.5 0,2 0,0.5 0.5,0 16,0 0.5,0 0,-0.5 0,-2 0,-0.5 -0.5,0 -16,0 -0.5,0 z m 1,1 15,0 0,1 -15,0 0,-1 z m -0.9375,3.75 0,0.5 0,2 0,0.5 0.5,0 16,0 0.5,0 0,-0.5 0,-2 0,-0.5 -0.5,0 -16,0 -0.5,0 z m 1,1 15,0 0,1 -15,0 0,-1 z"
         transform="translate(-391.66457,-660.9612)"
         id="path5029"
         inkscape:connector-curvature="0" />
      <path
         inkscape:connector-curvature="0"
         style="font-size:medium;font-style:normal;font-variant:normal;font-weight:normal;font-stretch:normal;text-indent:0;text-align:start;text-decoration:none;line-height:normal;letter-spacing:normal;word-spacing:normal;text-transform:none;direction:ltr;block-progression:tb;writing-mode:lr-tb;text-anchor:start;baseline-shift:baseline;color:#000000;fill:#000092;fill-opacity:0;fill-rule:nonzero;stroke:#000092;stroke-width:0.66666669;stroke-miterlimit:4;stroke-opacity:1;stroke-dasharray:none;marker:none;visibility:visible;display:inline;overflow:visible;enable-background:accumulate;font-family:Sans;-inkscape-font-specification:Sans"
         d="m -0.16457,21.1013 3.375,10.125"
         id="path6204" />
      <path
         inkscape:connector-curvature="0"
         style="font-size:medium;font-style:normal;font-variant:normal;font-weight:normal;font-stretch:normal;text-indent:0;text-align:start;text-decoration:none;line-height:normal;letter-spacing:normal;word-spacing:normal;text-transform:none;direction:ltr;block-progression:tb;writing-mode:lr-tb;text-anchor:start;baseline-shift:baseline;color:#000000;fill:#000092;fill-opacity:0;fill-rule:nonzero;stroke:#000092;stroke-width:0.66666669;stroke-miterlimit:4;stroke-opacity:1;stroke-dasharray:none;marker:none;visibility:visible;display:inline;overflow:visible;enable-background:accumulate;font-family:Sans;-inkscape-font-specification:Sans"
         d="m 3.21043,31.2263 c 0.25572,0.76717 0.97246,1.28125 1.78125,1.28125 l 22,0 c 0.80879,0 1.52553,-0.51408 1.78125,-1.28125 l 3.375,-10.125 c 0.12792,-0.38377 0.10157,-0.77948 -0.125,-1.09375 -0.22657,-0.31427 -0.62686,-0.5 -1.03125,-0.5 l -30,0 c -0.40439,0 -0.80468,0.18573 -1.03125,0.5 -0.22657,0.31427 -0.25292,0.70998 -0.125,1.09375"
         id="path6202" />
      <path
         inkscape:connector-curvature="0"
         style="font-size:medium;font-style:normal;font-variant:normal;font-weight:normal;font-stretch:normal;text-indent:0;text-align:start;text-decoration:none;line-height:normal;letter-spacing:normal;word-spacing:normal;text-transform:none;direction:ltr;block-progression:tb;writing-mode:lr-tb;text-anchor:start;baseline-shift:baseline;color:#000000;fill:#000092;fill-opacity:0;fill-rule:nonzero;stroke:#000092;stroke-width:0.66666669;stroke-miterlimit:4;stroke-opacity:1;stroke-dasharray:none;marker:none;visibility:visible;display:inline;overflow:visible;enable-background:accumulate;font-family:Sans;-inkscape-font-specification:Sans"
         d="m 11.49168,21.50755 0,0.5 0,2 0,0.5 0.5,0 8,0 0.5,0 0,-0.5 0,-2 0,-0.5 -0.5,0 -8,0 z"
         id="path6198" />
    </g>
  </g>
</svg>
