<?xml version="1.0" encoding="UTF-8" standalone="no"?>
<!-- Created with Inkscape (http://www.inkscape.org/) -->

<svg
   xmlns:dc="http://purl.org/dc/elements/1.1/"
   xmlns:cc="http://creativecommons.org/ns#"
   xmlns:rdf="http://www.w3.org/1999/02/22-rdf-syntax-ns#"
   xmlns:svg="http://www.w3.org/2000/svg"
   xmlns="http://www.w3.org/2000/svg"
   xmlns:sodipodi="http://sodipodi.sourceforge.net/DTD/sodipodi-0.dtd"
   xmlns:inkscape="http://www.inkscape.org/namespaces/inkscape"
   width="64"
   height="64"
   id="svg6288"
   version="1.1"
   inkscape:version="0.48.5 r10040"
   sodipodi:docname="ZoomOut.svg">
  <title
     id="title3819">Recognize</title>
  <defs
     id="defs6290" />
  <sodipodi:namedview
     id="base"
     pagecolor="#ffffff"
     bordercolor="#666666"
     borderopacity="1.0"
     inkscape:pageopacity="0.0"
     inkscape:pageshadow="2"
     inkscape:zoom="8"
     inkscape:cx="94.922042"
     inkscape:cy="4.560083"
     inkscape:document-units="px"
     inkscape:current-layer="layer1"
     showgrid="false"
     inkscape:window-width="1920"
     inkscape:window-height="1138"
     inkscape:window-x="-8"
     inkscape:window-y="-8"
     inkscape:window-maximized="1">
    <inkscape:grid
       type="xygrid"
       id="grid3010" />
  </sodipodi:namedview>
  <metadata
     id="metadata6293">
    <rdf:RDF>
      <cc:Work
         rdf:about="">
        <dc:format>image/svg+xml</dc:format>
        <dc:type
           rdf:resource="http://purl.org/dc/dcmitype/StillImage" />
        <dc:title>Recognize</dc:title>
        <dc:creator>
          <cc:Agent>
            <dc:title>Nastya Bekassova</dc:title>
          </cc:Agent>
        </dc:creator>
        <dc:rights>
          <cc:Agent>
            <dc:title>Nastya Bekassova</dc:title>
          </cc:Agent>
        </dc:rights>
        <dc:description>More Air for YAGF icon set</dc:description>
        <dc:source>symmetrica.net/~bekassova/</dc:source>
        <cc:license
           rdf:resource="http://www.gnu.org/copyleft/gpl.html" />
      </cc:Work>
    </rdf:RDF>
  </metadata>
  <g
     inkscape:label="Layer 1"
     inkscape:groupmode="layer"
     id="layer1"
     transform="translate(0,-988.36218)">
    <path
       style="font-size:medium;font-style:normal;font-variant:normal;font-weight:normal;font-stretch:normal;text-indent:0;text-align:start;text-decoration:none;line-height:normal;letter-spacing:normal;word-spacing:normal;text-transform:none;direction:ltr;block-progression:tb;writing-mode:lr-tb;text-anchor:start;baseline-shift:baseline;color:#000000;fill:#000092;fill-opacity:1;fill-rule:nonzero;stroke:none;stroke-width:1;marker:none;visibility:visible;display:inline;overflow:visible;enable-background:accumulate;font-family:Sans;-inkscape-font-specification:Sans"
       d="m 31.625,1001.5184 -0.5625,0.062 c -5.7098,0.7126 -10.516184,4.3342 -12.875,9.3438 l -0.25,0.5312 0.5625,0.1563 5.4375,1.7499 0,1.5625 0.90625,-1.6562 c 1.332713,-2.3472 3.646329,-4.0703 6.375,-4.625 l 0.40625,-0.094 0,-0.4063 0,-6.0625 0,-0.5625 z m 3,0 0,0.5625 0,5.4688 -1.03125,-0.2188 1.1875,1.1875 0.84375,0.8438 0,-0.4375 c 2.440202,0.6802 4.555815,2.1861 5.78125,4.3437 l 0.1875,0.3437 0.375,-0.125 5.78125,-1.8749 0.5625,-0.1563 -0.25,-0.5312 c -2.358805,-5.0095 -7.16508,-8.6322 -12.875,-9.3438 l -0.5625,-0.062 z m -4,1.2188 0,5.125 c -2.678749,0.6685 -4.923184,2.3131 -6.34375,4.5937 l -4.875,-1.5937 c 2.209726,-4.2578 6.316779,-7.3214 11.21875,-8.125 z m 5,0 c 4.90187,0.8029 9.009013,3.8671 11.21875,8.125 l -4.875,1.5937 c -1.421236,-2.2813 -3.664961,-3.926 -6.34375,-4.5937 l 0,-5.125 z m -18.59375,11.5624 -0.125,0.5625 c -0.190737,1.0032 -0.28125,2.035 -0.28125,3.0938 0,4.7417 2.013184,9.0226 5.21875,12.0312 l 0.40625,0.375 0.34375,-0.4375 3.5625,-4.9375 0.25,-0.3125 -0.28125,-0.3125 c -1.548047,-1.6906 -2.5,-3.9316 -2.5,-6.4062 0,-0.3618 0.02342,-0.7098 0.0625,-1.0625 l 0.03125,-0.4063 -0.375,-0.125 -5.78125,-1.875 -0.53125,-0.1875 z m 32.1875,0 -0.53125,0.1875 -5.78125,1.875 -0.375,0.125 0.03125,0.4063 c 0.03908,0.3527 0.0625,0.7007 0.0625,1.0625 0,2.4746 -0.951953,4.7156 -2.5,6.4062 l -0.28125,0.3125 0.25,0.3125 3.5625,4.9375 0.34375,0.4375 0.40625,-0.375 c 3.205452,-3.0095 5.21875,-7.2895 5.21875,-12.0312 0,-1.0588 -0.09051,-2.0906 -0.28125,-3.0938 l -0.125,-0.5625 z m -31.375,1.3125 4.78125,1.5625 0,0.7813 c 0,2.573 0.992245,4.892 2.53125,6.7187 l -3,4.1563 c -2.772401,-2.7999 -4.53125,-6.6206 -4.53125,-10.875 0,-0.8023 0.100904,-1.5746 0.21875,-2.3438 z m 30.5625,0 c 0.117846,0.7692 0.21875,1.5415 0.21875,2.3438 0,4.2544 -1.758754,8.0743 -4.53125,10.875 l -3,-4.1563 c 1.539005,-1.8267 2.53125,-4.1457 2.53125,-6.7187 l 0,-0.7813 4.78125,-1.5625 z m -19.59375,10.8125 -0.21875,0.3438 -3.59375,4.9062 -0.3125,0.4688 0.46875,0.2812 c 2.359436,1.3004 5.086063,2.0313 7.96875,2.0313 2.882687,0 5.609314,-0.7309 7.96875,-2.0313 l 0.46875,-0.2812 -0.3125,-0.4688 -3.59375,-4.9062 -0.21875,-0.3438 -0.375,0.1875 c -1.198657,0.5462 -2.532944,0.8438 -3.9375,0.8438 -1.404556,0 -2.738843,-0.2976 -3.9375,-0.8438 l -0.375,-0.1875 z m 0.375,1.1875 c 1.22578,0.5013 2.533414,0.8438 3.9375,0.8438 1.404086,0 2.71172,-0.3425 3.9375,-0.8438 l 3,4.1563 c -2.095029,1.0562 -4.429522,1.6875 -6.9375,1.6875 -2.507978,0 -4.842471,-0.6313 -6.9375,-1.6875 l 3,-4.1563 z"
       id="path4253"
       inkscape:connector-curvature="0" />
  </g>
</svg>
