<?xml version="1.0" encoding="UTF-8" standalone="no"?>
<!-- Generator: Adobe Illustrator 18.0.0, SVG Export Plug-In . SVG Version: 6.00 Build 0) -->

<svg
   xmlns:dc="http://purl.org/dc/elements/1.1/"
   xmlns:cc="http://creativecommons.org/ns#"
   xmlns:rdf="http://www.w3.org/1999/02/22-rdf-syntax-ns#"
   xmlns:svg="http://www.w3.org/2000/svg"
   xmlns="http://www.w3.org/2000/svg"
   xmlns:sodipodi="http://sodipodi.sourceforge.net/DTD/sodipodi-0.dtd"
   xmlns:inkscape="http://www.inkscape.org/namespaces/inkscape"
   version="1.1"
   id="Capa_1"
   x="0px"
   y="0px"
   viewBox="0 0 36.495 64.82"
   style="enable-background:new 0 0 36.495 64.82;"
   xml:space="preserve"
   inkscape:version="0.48.5 r10040"
   width="100%"
   height="100%"
   sodipodi:docname="sand_clock.svg"><title
     id="title3802">Sand Clock</title><metadata
     id="metadata55"><rdf:RDF><cc:Work
         rdf:about=""><dc:format>image/svg+xml</dc:format><dc:type
           rdf:resource="http://purl.org/dc/dcmitype/StillImage" /><dc:title>Sand Clock</dc:title><dc:creator><cc:Agent><dc:title>Anastasiya Bekassova</dc:title></cc:Agent></dc:creator><cc:license
           rdf:resource="GPL" /></cc:Work></rdf:RDF></metadata><defs
     id="defs53" /><sodipodi:namedview
     pagecolor="#ffffff"
     bordercolor="#666666"
     borderopacity="1"
     objecttolerance="10"
     gridtolerance="10"
     guidetolerance="10"
     inkscape:pageopacity="0"
     inkscape:pageshadow="2"
     inkscape:window-width="1920"
     inkscape:window-height="1018"
     id="namedview51"
     showgrid="false"
     inkscape:zoom="7.2817032"
     inkscape:cx="-3.596533"
     inkscape:cy="41.184944"
     inkscape:window-x="-8"
     inkscape:window-y="-8"
     inkscape:window-maximized="1"
     inkscape:current-layer="Capa_1" /><g
     id="g3"
     inkscape:export-filename="C:\Users\khmer\svg\sand_clock.png"
     inkscape:export-xdpi="89"
     inkscape:export-ydpi="89"><g
       id="g5"><g
         id="g7"><g
           id="g9"><path
             d="m 33.885,7.357 2.61,0 0,-2.557 C 36.495,2.149 34.346,0 31.695,0 L 4.799,0 C 2.149,0 0,2.149 0,4.8 l 0,2.556 2.61,0 0,7.902 c 0,2.215 0.56,4.394 1.629,6.333 l 5.141,9.335 c 0.505,0.917 0.489,2.031 -0.041,2.934 l -4.922,8.383 c -1.184,2.015 -1.808,4.31 -1.808,6.647 l 0,8.573 -2.609,0 0,2.558 c 0,2.65 2.149,4.799 4.799,4.799 l 26.896,0 c 2.651,0 4.8,-2.149 4.8,-4.799 l 0,-2.558 -2.61,0 0,-8.573 c 0,-2.337 -0.624,-4.632 -1.808,-6.647 L 27.173,33.892 C 26.631,32.97 26.616,31.831 27.131,30.896 l 5.124,-9.303 c 1.069,-1.94 1.629,-4.118 1.629,-6.333 l 0,-7.903 z m -4.496356,12.809 -5.401,9.806 c -0.853,1.55 -0.828,3.433 0.068,4.959 l 5.176,8.815 c 1.04,1.772 1.589,3.791 1.589,5.846 l 0,7.872 -2.361678,0 c 0.0483,-3.207305 -6.845288,-6.437932 -10.760288,-6.437932 -3.916,0 -10.1229408,3.91728 -10.0746357,6.575263 l -2.2253474,0 0,-7.872 c 0,-2.055 0.549,-4.074 1.589,-5.846 l 5.1760001,-8.815 c 0.896,-1.525 0.922,-3.409 0.068,-4.959 l -5.4010001,-9.806 c -0.94,-1.706 -1.433,-3.622 -1.433,-5.57 l 0,-7.2400005 L 30.819644,7.356 l 0,7.24 c 0.159012,2.880029 -0.725692,4.202239 -1.431,5.57 z"
             id="path11"
             inkscape:connector-curvature="0"
             sodipodi:nodetypes="ccssssccscsccsccssssccsccscsccccccsccsccsccccscccc"
             style="fill:#0000a4;fill-opacity:1" /></g></g></g><g
       id="g13"><g
         id="g15"><g
           id="g17"><path
             d="M 27.585272,16.933414 8.3604068,17.345407 14.662042,27.846703 c 0.306,0.557 2.676297,2.276305 3.311297,2.276305 0.635,0 3.142627,-1.857636 3.448627,-2.413636 z"
             id="path19"
             inkscape:connector-curvature="0"
             sodipodi:nodetypes="cccscc"
             style="fill:#0000a4;fill-opacity:1" /></g></g></g></g><g
     id="g21" /><g
     id="g23" /><g
     id="g25" /><g
     id="g27" /><g
     id="g29" /><g
     id="g31" /><g
     id="g33" /><g
     id="g35" /><g
     id="g37" /><g
     id="g39" /><g
     id="g41" /><g
     id="g43" /><g
     id="g45" /><g
     id="g47" /><g
     id="g49" /></svg>