<?xml version="1.0" encoding="UTF-8" standalone="no"?>
<!-- Created with Inkscape (http://www.inkscape.org/) -->

<svg
   xmlns:dc="http://purl.org/dc/elements/1.1/"
   xmlns:cc="http://creativecommons.org/ns#"
   xmlns:rdf="http://www.w3.org/1999/02/22-rdf-syntax-ns#"
   xmlns:svg="http://www.w3.org/2000/svg"
   xmlns="http://www.w3.org/2000/svg"
   xmlns:sodipodi="http://sodipodi.sourceforge.net/DTD/sodipodi-0.dtd"
   xmlns:inkscape="http://www.inkscape.org/namespaces/inkscape"
   width="64"
   height="64"
   id="svg6288"
   version="1.1"
   inkscape:version="0.48.5 r10040"
   sodipodi:docname="save2.svg">
  <title
     id="title3017">Save</title>
  <defs
     id="defs6290" />
  <sodipodi:namedview
     id="base"
     pagecolor="#ffffff"
     bordercolor="#666666"
     borderopacity="1.0"
     inkscape:pageopacity="0.0"
     inkscape:pageshadow="2"
     inkscape:zoom="1.979899"
     inkscape:cx="-245.99003"
     inkscape:cy="87.44563"
     inkscape:document-units="px"
     inkscape:current-layer="layer1"
     showgrid="false"
     inkscape:window-width="1920"
     inkscape:window-height="1138"
     inkscape:window-x="-8"
     inkscape:window-y="-8"
     inkscape:window-maximized="1" />
  <metadata
     id="metadata6293">
    <rdf:RDF>
      <cc:Work
         rdf:about="">
        <dc:format>image/svg+xml</dc:format>
        <dc:type
           rdf:resource="http://purl.org/dc/dcmitype/StillImage" />
        <dc:title>Save</dc:title>
        <dc:creator>
          <cc:Agent>
            <dc:title>Nastya Bekassova</dc:title>
          </cc:Agent>
        </dc:creator>
        <dc:rights>
          <cc:Agent>
            <dc:title>Nastya Bekassova</dc:title>
          </cc:Agent>
        </dc:rights>
        <dc:description>More Air for YAGF icon set</dc:description>
        <dc:source>symmetrica.net/~bekassova/</dc:source>
        <cc:license
           rdf:resource="http://www.gnu.org/copyleft/gpl.html" />
      </cc:Work>
    </rdf:RDF>
  </metadata>
  <g
     inkscape:label="Layer 1"
     inkscape:groupmode="layer"
     id="layer1"
     transform="translate(0,-988.36218)">
    <path
       style="font-size:medium;font-style:normal;font-variant:normal;font-weight:normal;font-stretch:normal;text-indent:0;text-align:start;text-decoration:none;line-height:normal;letter-spacing:normal;word-spacing:normal;text-transform:none;direction:ltr;block-progression:tb;writing-mode:lr-tb;text-anchor:start;baseline-shift:baseline;color:#000000;fill:#000092;fill-opacity:1;fill-rule:nonzero;stroke:none;stroke-width:0;marker:none;visibility:visible;display:inline;overflow:visible;enable-background:accumulate;font-family:Sans;-inkscape-font-specification:Sans"
       d="m 47.321563,995.87056 c -9.5325,9.74654 -22.51412,22.48624 -32.125,32.15624 -1.00032,2.1498 -1.07001,4.6339 -1.75,6.9063 -0.71415,3.1673 -1.43634,6.3202 -2.09375,9.5 5.41834,-1.1318 10.80721,-2.3995 16.21875,-3.5625 9.24732,-9.4646 21.95316,-21.923 31.28125,-31.3125 1.93063,-1.6352 -1.74042,-3.3301 -2.59375,-4.7188 -2.98204,-2.9868 -6.04623,-5.89326 -8.9375,-8.96874 z m -0.125,2.46875 10.1875,9.81249 -30.96875,31.0313 -12.625,2.9375 3.3125,-13 z m -20.03125,33.71879 c -1.31938,-1.1242 -2.68729,-2.2341 -3.84375,-3.5313 2.77692,-3.6552 27.20201,-24.5487 24.65625,-26.9687 l -0.5,-0.5313 -0.53125,0.5313 -26.59375,26.4687 -0.5,0.5 0.5,0.5313 c 1.25068,1.3321 5.12649,4.9501 6.375,6.125 l 0.53125,0.4687 0.5,-0.5 26.28125,-26.6562 0.53125,-0.5313 -0.53125,-0.5 c -2.43227,-3.7809 -22.78547,20.4899 -26.875,24.5938 z"
       id="path6790-7"
       inkscape:connector-curvature="0"
       sodipodi:nodetypes="ccccccccccccccccccccccccccccc" />
  </g>
</svg>
