<?xml version="1.0" encoding="UTF-8" standalone="no"?>
<!-- Created with Inkscape (http://www.inkscape.org/) -->

<svg
   xmlns:dc="http://purl.org/dc/elements/1.1/"
   xmlns:cc="http://creativecommons.org/ns#"
   xmlns:rdf="http://www.w3.org/1999/02/22-rdf-syntax-ns#"
   xmlns:svg="http://www.w3.org/2000/svg"
   xmlns="http://www.w3.org/2000/svg"
   xmlns:sodipodi="http://sodipodi.sourceforge.net/DTD/sodipodi-0.dtd"
   xmlns:inkscape="http://www.inkscape.org/namespaces/inkscape"
   width="64"
   height="64"
   id="svg6288"
   version="1.1"
   inkscape:version="0.48.3.1 r9886"
   sodipodi:docname="scanner.svg"
   inkscape:export-filename="C:\Users\khmer\svg\scanner.png"
   inkscape:export-xdpi="51.424816"
   inkscape:export-ydpi="51.424816">
  <title
     id="title6312">Scanner</title>
  <defs
     id="defs6290" />
  <sodipodi:namedview
     id="base"
     pagecolor="#ffffff"
     bordercolor="#666666"
     borderopacity="1.0"
     inkscape:pageopacity="0.0"
     inkscape:pageshadow="2"
     inkscape:zoom="0.9899495"
     inkscape:cx="62.892353"
     inkscape:cy="239.18675"
     inkscape:document-units="px"
     inkscape:current-layer="layer1"
     showgrid="false"
     inkscape:window-width="1423"
     inkscape:window-height="906"
     inkscape:window-x="65"
     inkscape:window-y="24"
     inkscape:window-maximized="1" />
  <metadata
     id="metadata6293">
    <rdf:RDF>
      <cc:Work
         rdf:about="">
        <dc:format>image/svg+xml</dc:format>
        <dc:type
           rdf:resource="http://purl.org/dc/dcmitype/StillImage" />
        <dc:title>Scanner</dc:title>
        <dc:creator>
          <cc:Agent>
            <dc:title>Nastya Bekassova</dc:title>
          </cc:Agent>
        </dc:creator>
        <dc:rights>
          <cc:Agent>
            <dc:title>Nastya Bekassova</dc:title>
          </cc:Agent>
        </dc:rights>
        <dc:description>More Air for YAGF icon set</dc:description>
        <dc:source>symmetrica.net/~bekassova/</dc:source>
        <cc:license
           rdf:resource="www.gnu.org/copyleft/gpl.html" />
      </cc:Work>
    </rdf:RDF>
  </metadata>
  <g
     inkscape:label="Layer 1"
     inkscape:groupmode="layer"
     id="layer1"
     transform="translate(0,-988.36218)">
    <path
       style="font-size:medium;font-style:normal;font-variant:normal;font-weight:normal;font-stretch:normal;text-indent:0;text-align:start;text-decoration:none;line-height:normal;letter-spacing:normal;word-spacing:normal;text-transform:none;direction:ltr;block-progression:tb;writing-mode:lr-tb;text-anchor:start;baseline-shift:baseline;color:#000000;fill:#000092;fill-opacity:1;stroke:#000092;stroke-width:0.69599999999999995;marker:none;visibility:visible;display:inline;overflow:visible;enable-background:accumulate;font-family:Sans;-inkscape-font-specification:Sans;stroke-opacity:1;stroke-miterlimit:4;stroke-dasharray:none;stroke-linejoin:round"
       d="m 8.1818573,1002.5448 c -2.066418,1.0775 0.4978463,4.8237 1.3599814,6.3993 1.7974243,2.8617 3.3655243,6.1571 4.9693763,8.819 1.631086,2.5073 3.031947,5.0328 4.802192,7.3518 -4.801233,2.3558 -9.4795,5.1603 -14.2745148,7.5391 1.5648681,1.1732 3.200219,-0.7674 4.6925798,-1.4023 3.452223,-1.5048 6.693504,-3.8518 10.19192,-5.1877 8.26495,0.1367 16.530912,0.017 24.795839,0.1566 -5.388006,1.5147 -10.566652,4.2901 -15.989363,5.541 -7.766602,0.6876 -15.773092,1.236 -23.6739875,0.9467 -2.1093586,1.1911 -2.1668294,4.8578 -1.8505594,7.5059 0.5870696,2.8191 1.4913489,4.1869 3.3182692,3.7867 8.1219587,-0.2352 15.3214217,-0.079 23.4446817,-0.2774 0.545359,0.9822 12.955181,-8.3059 14.683331,-9.5853 1.229608,-1.9286 0.59051,-4.7595 0.198647,-6.9906 -1.413333,-5.3974 -3.294384,-10.5499 -5.193349,-15.6493 -1.098424,-2.739 -2.155929,-5.5611 -3.513518,-8.0619 -1.941862,-2.1676 -4.53918,-1.0418 -6.808446,-1.3178 -7.052712,0.048 -14.111643,-0.3257 -21.1530797,0.426 z m 1.1495531,1.0547 c 7.9642946,-0.065 14.5422306,-0.5184 22.5052236,0 1.70034,-0.2845 2.830276,-0.01 3.587734,2.281 1.546188,2.9609 3.064586,6.3518 4.2584,9.5899 1.193814,3.238 2.378716,6.2601 3.38418,9.6199 -7.77689,-0.1758 -14.606718,0.09 -22.383563,-0.085 -1.806637,-2.7602 -4.83627,-6.6652 -6.468767,-9.8818 -1.690582,-3.3311 -3.236619,-5.2556 -4.8438847,-8.7661 -0.039037,-0.7286 -1.1147855,-2.609 -0.039323,-2.7623 z m 34.7612086,23.9414 c 0.523993,2.0455 1.206966,5.1351 -0.541585,6.4955 -2.277635,1.7309 -4.656514,3.2304 -6.976224,4.8706 -1.781738,0.9931 -4.603589,3.129 -6.0666,3.2637 0,-1.5447 0.08192,-3.0858 0.124213,-4.6271 0.04193,-1.5414 -0.141634,-2.5779 -0.103544,-4.1236 0.822587,-2.4839 3.885178,-2.6005 5.960011,-3.5667 2.608553,-0.8207 4.536595,-1.6111 7.180388,-2.3303 l 0.241298,-0.01 0.182056,0.027 -5e-5,0 z m -14.399613,7.8701 c 0.09614,2.4809 0.175811,3.9439 -0.206895,6.3523 -0.08982,0.9687 -0.111147,1.031 -0.963138,1.063 -0.881508,0.1154 -2.826768,0.034 -3.713915,0.098 -1.683567,0.034 -12.763357,0.2076 -18.4482657,0.4898 -0.9736779,0.048 -0.9370649,-0.697 -1.2950273,-1.1499 -0.305889,-0.387 -0.5960585,-0.9087 -0.7003925,-1.3037 -0.3113476,-1.179 -0.378525,-2.2808 -0.2525954,-3.5815 0.1259297,-1.3008 0.5353948,-2.8845 0.8472553,-3.3823 0.9109299,-0.6606 1.8586969,-0.1737 2.9757988,-0.2836 1.1491988,-0.1131 2.2808558,0.1301 3.2843888,-0.02 6.288388,-0.08 11.872973,-0.6194 18.160566,-0.915 -0.674822,-0.6313 0.181231,0.4957 0.312172,0.9284 z"
       id="path5604"
       inkscape:connector-curvature="0"
       sodipodi:nodetypes="cccccccccccccccccccccccsccsccccccscccccccccccssasccccccc"
       inkscape:export-xdpi="51"
       inkscape:export-ydpi="51"
       inkscape:export-filename="/home/parallels/Downloads/yagf-0.9.4/src/isrc/MAFY/path2984-1.png" />
    <path
       style="fill:none;stroke:#008fe0;stroke-width:1;stroke-linecap:butt;stroke-linejoin:miter;stroke-miterlimit:4;stroke-opacity:1;stroke-dasharray:none;marker-start:none"
       d="m 18.624688,1030.707 4.798225,-0.6313 4.735089,-0.5682"
       id="path2984"
       inkscape:connector-curvature="0"
       sodipodi:nodetypes="ccc"
       inkscape:export-xdpi="51"
       inkscape:export-ydpi="51" />
    <path
       style="fill:none;stroke:#008fe0;stroke-width:1;stroke-linecap:butt;stroke-linejoin:miter;stroke-miterlimit:4;stroke-opacity:1;stroke-dasharray:none;marker-start:none"
       d="m 17.10946,1028.8446 4.798225,-0.6313 4.735089,-0.5683"
       id="path2984-1"
       inkscape:connector-curvature="0"
       sodipodi:nodetypes="ccc"
       inkscape:export-xdpi="51"
       inkscape:export-ydpi="51" />
  </g>
</svg>
