<?xml version="1.0" encoding="UTF-8" standalone="no"?>
<!-- Created with Inkscape (http://www.inkscape.org/) -->

<svg
   xmlns:dc="http://purl.org/dc/elements/1.1/"
   xmlns:cc="http://creativecommons.org/ns#"
   xmlns:rdf="http://www.w3.org/1999/02/22-rdf-syntax-ns#"
   xmlns:svg="http://www.w3.org/2000/svg"
   xmlns="http://www.w3.org/2000/svg"
   xmlns:xlink="http://www.w3.org/1999/xlink"
   xmlns:sodipodi="http://sodipodi.sourceforge.net/DTD/sodipodi-0.dtd"
   xmlns:inkscape="http://www.inkscape.org/namespaces/inkscape"
   width="64"
   height="64"
   id="svg6288"
   version="1.1"
   inkscape:version="0.48.3.1 r9886"
   sodipodi:docname="Settings.svg"
   inkscape:export-filename="/home/parallels/Downloads/yagf-0.9.4/src/isrc/MAFY/Settings.png"
   inkscape:export-xdpi="65.454544"
   inkscape:export-ydpi="65.454544">
  <title
     id="title3203">Settings</title>
  <defs
     id="defs6290">
    <linearGradient
       id="linearGradient2986">
      <stop
         style="stop-color:#628092;stop-opacity:1;"
         offset="0"
         id="stop2988" />
      <stop
         style="stop-color:#003092;stop-opacity:0;"
         offset="1"
         id="stop2990" />
    </linearGradient>
    <linearGradient
       inkscape:collect="always"
       xlink:href="#linearGradient2986"
       id="linearGradient2992"
       x1="37.5"
       y1="44.357143"
       x2="19.285715"
       y2="28.642857"
       gradientUnits="userSpaceOnUse" />
  </defs>
  <sodipodi:namedview
     id="base"
     pagecolor="#ffffff"
     bordercolor="#666666"
     borderopacity="1.0"
     inkscape:pageopacity="0.0"
     inkscape:pageshadow="2"
     inkscape:zoom="2.8"
     inkscape:cx="-83.07143"
     inkscape:cy="59.77913"
     inkscape:document-units="px"
     inkscape:current-layer="layer1"
     showgrid="false"
     inkscape:window-width="1423"
     inkscape:window-height="906"
     inkscape:window-x="65"
     inkscape:window-y="24"
     inkscape:window-maximized="1" />
  <metadata
     id="metadata6293">
    <rdf:RDF>
      <cc:Work
         rdf:about="">
        <dc:format>image/svg+xml</dc:format>
        <dc:type
           rdf:resource="http://purl.org/dc/dcmitype/StillImage" />
        <dc:title>Settings</dc:title>
        <dc:creator>
          <cc:Agent>
            <dc:title>Nastya Bekassova</dc:title>
          </cc:Agent>
        </dc:creator>
        <dc:rights>
          <cc:Agent>
            <dc:title>Nastya Bekassova</dc:title>
          </cc:Agent>
        </dc:rights>
        <dc:description>More Air for YAGF icon set</dc:description>
        <dc:source>symmetrica.net/~bekassova/</dc:source>
        <cc:license
           rdf:resource="http://www.gnu.org/copyleft/gpl.html" />
      </cc:Work>
    </rdf:RDF>
  </metadata>
  <g
     inkscape:label="Layer 1"
     inkscape:groupmode="layer"
     id="layer1"
     transform="translate(0,-988.36218)">
    <path
       inkscape:connector-curvature="0"
       id="path4007"
       style="font-size:medium;font-style:normal;font-variant:normal;font-weight:normal;font-stretch:normal;text-indent:0;text-align:start;text-decoration:none;line-height:normal;letter-spacing:normal;word-spacing:normal;text-transform:none;direction:ltr;block-progression:tb;writing-mode:lr-tb;text-anchor:start;baseline-shift:baseline;color:#000000;fill:#000092;fill-opacity:1;fill-rule:nonzero;stroke:none;stroke-width:1;marker:none;visibility:visible;display:inline;overflow:visible;enable-background:accumulate;font-family:Sans;-inkscape-font-specification:Sans"
       d="m 27.127956,1016.6733 c -3.585679,0.5044 -6.411214,3.7801 -6.34375,7.4062 -0.118999,4.1805 3.707644,7.8137 7.875,7.5 0.01046,-3e-4 0.0208,3e-4 0.03125,0 4.164641,-0.1167 7.585482,-4.1156 7.0625,-8.25 -7.65e-4,-0.01 8.11e-4,-0.021 0,-0.031 -0.329532,-4.1517 -4.491525,-7.3545 -8.59375,-6.6249 -0.01061,0 -0.02064,-0 -0.03125,0 z m 0.15625,0.9688 0.03125,0 c 3.496482,-0.6394 7.172671,2.207 7.4375,5.7499 l 0,0.031 c 0.462992,3.5245 -2.572212,7.0734 -6.125,7.1563 l -0.03125,0 c -3.544193,0.2837 -6.913661,-2.9462 -6.8125,-6.5 -0.05764,-3.0978 2.432266,-6.0197 5.5,-6.4374 z m -0.78125,-10.0313 c -0.892987,0.1235 -1.473658,0.725 -1.78125,1.375 -0.307592,0.65 -0.430989,1.3561 -0.53125,1.9375 l -0.3125,1.5 c -0.275258,0.1707 -0.509028,0.279 -0.71875,0.25 -0.256069,-0.035 -0.570878,-0.1959 -0.90625,-0.5 l -0.03125,-0.031 -0.03125,-0.031 c -0.479732,-0.2998 -1.055105,-0.7744 -1.71875,-1.0937 -0.663645,-0.3193 -1.504969,-0.4507 -2.3125,0 l -0.03125,0 -0.03125,0.031 c -1.021645,0.7769 -1.856139,1.7241 -2.6875,2.5937 l 0,0.031 -0.03125,0.031 c -0.544363,0.7186 -0.523372,1.5417 -0.28125,2.2188 0.242121,0.677 0.659831,1.2681 1,1.75 l 0.84375,1.2812 c -0.07503,0.3165 -0.174061,0.5591 -0.34375,0.6875 -0.206758,0.1564 -0.547922,0.2593 -1,0.2812 l -0.03125,0 -0.0625,0 c -0.531739,0.1301 -1.227152,0.1828 -1.90625,0.4063 -0.679098,0.2235 -1.365938,0.7076 -1.65625,1.5625 l -0.03125,0.031 0,0.031 c -0.228758,1.3131 -0.115079,2.6185 -0.09375,3.8437 l 0,0.031 0,0.031 c 0.123302,0.8933 0.724987,1.4738 1.375,1.7813 0.650013,0.3075 1.356337,0.4307 1.9375,0.5312 l 1.5,0.3125 c 0.170664,0.2753 0.278941,0.5089 0.25,0.7188 -0.03534,0.2562 -0.196133,0.5707 -0.5,0.9062 l -0.03125,0.031 -0.03125,0.031 c -0.283536,0.4683 -0.740274,1.0178 -1.0625,1.6563 -0.322226,0.6384 -0.493134,1.44 -0.09375,2.25 l 0.03125,0.031 0,0.031 c 0.73302,1.0766 1.7293,1.8548 2.53125,2.6875 l 0.03125,0.031 c 0.604024,0.5344 1.366882,0.6385 2.03125,0.5 0.640641,-0.1335 1.216304,-0.468 1.6875,-0.8437 l 0.0625,-0.031 1.625,-1.0625 c 0.316648,0.076 0.558946,0.174 0.6875,0.3438 0.156638,0.2069 0.259349,0.5478 0.28125,1 l 0,0.031 0,0.062 c 0.130103,0.5316 0.182728,1.2274 0.40625,1.9063 0.223522,0.6789 0.707976,1.3659 1.5625,1.6562 l 0.03125,0.031 0.03125,0 c 1.313148,0.2287 2.618459,0.1152 3.84375,0.094 l 0.03125,0 0.03125,0 c 0.893188,-0.1237 1.473746,-0.7249 1.78125,-1.375 0.307504,-0.6501 0.430603,-1.3562 0.53125,-1.9375 l 0.3125,-1.5 c 0.275232,-0.1709 0.509149,-0.2788 0.71875,-0.25 0.255922,0.035 0.570868,0.1958 0.90625,0.5 l 0.03125,0.031 0.03125,0.031 c 0.479639,0.2997 1.055177,0.7742 1.71875,1.0938 0.663573,0.3195 1.504811,0.4507 2.3125,0 l 0.03125,0 0.03125,-0.031 c 1.021712,-0.7769 1.855803,-1.7239 2.6875,-2.5937 l 0,-0.031 0.03125,-0.031 c 0.544368,-0.7186 0.523417,-1.5417 0.28125,-2.2188 -0.238907,-0.6679 -0.661749,-1.2407 -1,-1.7187 l 0,-0.031 -0.84375,-1.2812 c 0.07538,-0.3169 0.173952,-0.5589 0.34375,-0.6875 0.206891,-0.1568 0.547761,-0.2594 1,-0.2813 l 0.03125,0 0.0625,0 c 0.531346,-0.1302 1.227331,-0.1829 1.90625,-0.4062 0.678919,-0.2234 1.366139,-0.6764 1.65625,-1.5313 l 0.03125,-0.062 0,-0.031 c 0.229039,-1.3133 0.115142,-2.6184 0.09375,-3.8438 l 0,-0.031 0,-0.031 c -0.166725,-1.0038 -0.971909,-1.8326 -1.96875,-2.0312 l -0.03125,0 -2.8125,-0.5625 c -0.188794,-0.2911 -0.279993,-0.5323 -0.25,-0.75 0.03526,-0.2559 0.195815,-0.5709 0.5,-0.9062 l 0.03125,-0.031 0.03125,-0.031 c 0.283915,-0.4683 0.739936,-1.0178 1.0625,-1.6563 0.322564,-0.6385 0.493288,-1.4397 0.09375,-2.25 l -0.03125,-0.031 0,-0.031 c -0.73302,-1.0766 -1.729297,-1.8548 -2.53125,-2.6875 l 0,-0.031 -0.03125,0 c -0.604106,-0.5343 -1.366906,-0.6384 -2.03125,-0.5 -0.640618,0.1335 -1.216241,0.4681 -1.6875,0.8438 -0.01745,0.014 -0.04534,0.017 -0.0625,0.031 l -1.625,1.0625 c -0.316757,-0.075 -0.5589,-0.1741 -0.6875,-0.3438 -0.156693,-0.2068 -0.259216,-0.5478 -0.28125,-1 l 0,-0.031 0,-0.062 c -0.130404,-0.5313 -0.182818,-1.2272 -0.40625,-1.9062 -0.223432,-0.6791 -0.707423,-1.3664 -1.5625,-1.6563 l -0.03125,-0.031 -0.03125,0 c -1.313126,-0.2284 -2.618382,-0.1151 -3.84375,-0.094 l -0.03125,0 z m 0.09375,1 c 0.01084,-2e-4 0.02042,2e-4 0.03125,0 1.235651,-0.023 2.444093,-0.091 3.5625,0.094 0.49251,0.183 0.709095,0.4958 0.875,1 0.162489,0.4938 0.234109,1.1371 0.375,1.75 0.0077,0.034 0.02302,0.06 0.03125,0.094 0.03706,0.5283 0.159695,1.0296 0.46875,1.4375 0.329253,0.4345 0.845522,0.725 1.5,0.8125 l 0.1875,0 0.15625,-0.094 1.84375,-1.2187 0.03125,-0.031 0.03125,0 c 0.387018,-0.3163 0.872191,-0.5958 1.3125,-0.6875 0.440309,-0.092 0.795528,-0.038 1.15625,0.2812 0.838157,0.8651 1.732297,1.5933 2.34375,2.4688 0.0041,0.01 -0.0041,0.025 0,0.031 0.227133,0.485 0.148176,0.8648 -0.09375,1.3437 -0.236006,0.4672 -0.602126,0.9631 -0.9375,1.5 -0.01637,0.026 -0.04649,0.036 -0.0625,0.062 l 0.03125,0 c -0.357104,0.4056 -0.647544,0.8581 -0.71875,1.375 -0.07441,0.5401 0.0964,1.1012 0.5,1.625 l 0.09375,0.1562 0.1875,0.031 3.0625,0.5937 0.03125,0 c 0.573518,0.1072 1.060657,0.6432 1.15625,1.2188 0.02371,1.2245 0.08934,2.4229 -0.09375,3.5312 -0.183104,0.4925 -0.495952,0.7092 -1,0.875 -0.493668,0.1624 -1.137173,0.2344 -1.75,0.375 -0.03365,0.01 -0.06023,0.023 -0.09375,0.031 -0.528575,0.037 -1.029652,0.1597 -1.4375,0.4687 -0.434504,0.3293 -0.724191,0.846 -0.8125,1.5 l 0,0.1875 0.09375,0.1563 0.96875,1.4687 0.03125,0 0,0.031 c 0.346664,0.4907 0.703418,1.0203 0.875,1.5 0.171582,0.4797 0.183402,0.8329 -0.15625,1.2812 -0.818309,0.8574 -1.592811,1.7263 -2.46875,2.4063 -0.499515,0.2787 -0.899828,0.2126 -1.40625,-0.031 -0.483365,-0.2327 -0.99422,-0.6249 -1.53125,-0.9687 -0.02562,-0.016 -0.03678,-0.046 -0.0625,-0.062 l 0,0.031 c -0.405295,-0.3567 -0.827286,-0.6476 -1.34375,-0.7187 -0.540138,-0.074 -1.132459,0.096 -1.65625,0.5 l -0.15625,0.094 -0.03125,0.1875 -0.34375,1.75 c -0.102606,0.5926 -0.2195,1.2267 -0.4375,1.6875 -0.213897,0.4522 -0.433189,0.7297 -0.96875,0.8125 -0.01084,2e-4 -0.02042,-2e-4 -0.03125,0 -1.235639,0.023 -2.444294,0.091 -3.5625,-0.094 -0.49231,-0.1833 -0.709043,-0.496 -0.875,-1 -0.16254,-0.4937 -0.234551,-1.1373 -0.375,-1.75 -0.0017,-0.035 -0.02884,-0.059 -0.03125,-0.094 -0.03692,-0.5283 -0.159988,-1.0296 -0.46875,-1.4375 -0.328941,-0.4345 -0.84617,-0.7239 -1.5,-0.8125 l -0.1875,0 -0.15625,0.094 -1.84375,1.2187 -0.03125,0.031 -0.03125,0 c -0.386848,0.3163 -0.872157,0.5957 -1.3125,0.6875 -0.440343,0.092 -0.795698,0.038 -1.15625,-0.2813 -0.838156,-0.865 -1.732298,-1.5932 -2.34375,-2.4687 -0.0056,-0.011 0.0052,-0.02 0,-0.031 -0.227017,-0.4848 -0.147944,-0.8648 0.09375,-1.3437 0.23578,-0.4672 0.602508,-0.963 0.9375,-1.5 0.01635,-0.026 0.04651,-0.036 0.0625,-0.062 l -0.03125,0 c 0.356268,-0.4054 0.647535,-0.8274 0.71875,-1.3438 0.07448,-0.54 -0.09693,-1.1323 -0.5,-1.6562 l -0.09375,-0.1563 -0.1875,-0.031 -1.75,-0.3438 c -0.592419,-0.1025 -1.226795,-0.2195 -1.6875,-0.4375 -0.452033,-0.2138 -0.729874,-0.4332 -0.8125,-0.9687 -1.89e-4,-0.011 1.99e-4,-0.02 0,-0.031 -0.02271,-1.2357 -0.09075,-2.4443 0.09375,-3.5625 0.183261,-0.4925 0.495782,-0.709 1,-0.875 0.493835,-0.1625 1.137097,-0.2345 1.75,-0.375 0.03366,-0.01 0.06023,-0.023 0.09375,-0.031 0.528047,-0.037 1.029541,-0.1601 1.4375,-0.4688 0.434622,-0.3289 0.724802,-0.8456 0.8125,-1.5 l 0,-0.1875 -0.09375,-0.1562 -0.96875,-1.4687 -0.03125,0 0,-0.031 c -0.346527,-0.491 -0.703432,-1.0203 -0.875,-1.5 -0.171568,-0.4798 -0.183392,-0.8329 0.15625,-1.2813 0.823149,-0.8626 1.586597,-1.7247 2.46875,-2.4062 0.0058,-0 0.02548,0 0.03125,0 0.483739,-0.2573 0.87983,-0.207 1.375,0.031 0.48789,0.2347 0.988934,0.6543 1.53125,1 0.02059,0.013 0.04184,0.018 0.0625,0.031 0.405069,0.3562 0.827639,0.6161 1.34375,0.6875 0.540003,0.075 1.132303,-0.097 1.65625,-0.5 l 0.15625,-0.094 0.03125,-0.1875 0.34375,-1.75 c 0.102117,-0.5923 0.219499,-1.2269 0.4375,-1.6875 0.213898,-0.452 0.433373,-0.7298 0.96875,-0.8125 z" />
    <path
       style="fill:url(#linearGradient2992);fill-opacity:1;stroke:#000092;stroke-width:0.94571428999999996;stroke-linejoin:round;stroke-miterlimit:4;stroke-opacity:1;stroke-dasharray:none"
       d="m 26.590367,50.696643 c -0.643557,-0.325689 -0.973051,-0.909099 -1.25,-2.21328 -0.280344,-1.320169 -0.614696,-1.904917 -1.313412,-2.297024 -0.878888,-0.493216 -1.047846,-0.455096 -2.709838,0.611402 -0.97488,0.625578 -1.926715,1.137415 -2.115189,1.137415 -0.490101,0 -2.987643,-2.624798 -2.987643,-3.139872 0,-0.237151 0.428354,-1.198402 0.951897,-2.136113 1.37628,-2.465035 1.055425,-3.396317 -1.362416,-3.954422 -2.534874,-0.585119 -2.803767,-0.884549 -2.803767,-3.122186 0,-2.116368 0.256848,-2.395224 2.613385,-2.837313 2.52277,-0.473274 3.035069,-1.904284 1.493758,-4.172527 -0.491071,-0.722676 -0.892857,-1.530938 -0.892857,-1.796138 0,-0.603234 2.549626,-3.127143 3.159006,-3.127143 0.247675,0 1.041599,0.401785 1.764276,0.892857 2.241805,1.523346 3.774713,1.049613 4.147514,-1.281757 0.403325,-2.522257 0.710417,-2.825386 2.862325,-2.825386 2.172201,0 2.466401,0.239821 3.066879,2.5 0.23484,0.883929 0.591661,1.808036 0.792935,2.053571 0.579573,0.707023 1.989825,0.522724 3.416061,-0.446428 0.722677,-0.491072 1.565462,-0.892857 1.872857,-0.892857 0.602305,0 3.203862,2.482428 3.203862,3.057153 0,0.191656 -0.401786,0.939746 -0.892858,1.662422 -0.87353,1.285516 -1.142991,2.90679 -0.619531,3.727553 0.144314,0.226277 1.033744,0.526969 1.976512,0.668205 2.083865,0.312181 2.750162,0.916434 2.750162,2.49407 0,2.118806 -0.536071,2.969421 -2.037427,3.2329 -3.174882,0.557171 -3.815446,1.812772 -2.227784,4.366786 1.282182,2.062598 1.159925,2.62661 -0.91189,4.20686 l -1.238937,0.944983 -1.624873,-0.952239 c -1.069345,-0.626678 -2.01779,-0.914269 -2.774124,-0.841181 -1.074028,0.10379 -1.179959,0.239629 -1.618413,2.075345 -0.25804,1.080357 -0.730721,2.165179 -1.050404,2.410714 -0.739796,0.56821 -2.510828,0.56511 -3.640066,-0.0064 l 0,10e-7 z m 4.786936,-7.956615 c 3.049356,-1.447014 4.609167,-4.127586 4.402256,-7.565381 -0.287787,-4.781521 -4.346943,-7.812061 -9.164599,-6.84223 -7.250159,1.459513 -8.034049,11.796882 -1.104288,14.562529 1.361878,0.543521 4.5735,0.458713 5.866631,-0.154918 z"
       id="path2984"
       inkscape:connector-curvature="0"
       transform="translate(0,988.36218)" />
  </g>
</svg>
