<?xml version="1.0" encoding="UTF-8" standalone="no"?>
<!-- Created with Inkscape (http://www.inkscape.org/) -->

<svg
   xmlns:dc="http://purl.org/dc/elements/1.1/"
   xmlns:cc="http://creativecommons.org/ns#"
   xmlns:rdf="http://www.w3.org/1999/02/22-rdf-syntax-ns#"
   xmlns:svg="http://www.w3.org/2000/svg"
   xmlns="http://www.w3.org/2000/svg"
   xmlns:sodipodi="http://sodipodi.sourceforge.net/DTD/sodipodi-0.dtd"
   xmlns:inkscape="http://www.inkscape.org/namespaces/inkscape"
   width="64"
   height="64"
   id="svg6288"
   version="1.1"
   inkscape:version="0.48.3.1 r9886"
   sodipodi:docname="SingleBlock.svg">
  <title
     id="title3077">Single Block</title>
  <defs
     id="defs6290" />
  <sodipodi:namedview
     id="base"
     pagecolor="#ffffff"
     bordercolor="#666666"
     borderopacity="1.0"
     inkscape:pageopacity="0.0"
     inkscape:pageshadow="2"
     inkscape:zoom="2.8"
     inkscape:cx="-83.07143"
     inkscape:cy="83.957379"
     inkscape:document-units="px"
     inkscape:current-layer="layer1"
     showgrid="false"
     inkscape:window-width="1423"
     inkscape:window-height="906"
     inkscape:window-x="65"
     inkscape:window-y="24"
     inkscape:window-maximized="1" />
  <metadata
     id="metadata6293">
    <rdf:RDF>
      <cc:Work
         rdf:about="">
        <dc:format>image/svg+xml</dc:format>
        <dc:type
           rdf:resource="http://purl.org/dc/dcmitype/StillImage" />
        <dc:title>Single Block</dc:title>
        <dc:creator>
          <cc:Agent>
            <dc:title>Nastya Bekassova</dc:title>
          </cc:Agent>
        </dc:creator>
        <dc:rights>
          <cc:Agent>
            <dc:title>Nastya Bekassova</dc:title>
          </cc:Agent>
        </dc:rights>
        <dc:description>More Air for YAGF icon set</dc:description>
        <dc:source>symmetrica.net/~bekassova/</dc:source>
        <cc:license
           rdf:resource="http://www.gnu.org/copyleft/gpl.html" />
      </cc:Work>
    </rdf:RDF>
  </metadata>
  <g
     inkscape:label="Layer 1"
     inkscape:groupmode="layer"
     id="layer1"
     transform="translate(0,-988.36218)">
    <path
       style="fill:#4446c8;stroke:#000092;stroke-width:1.09702933000000002px;stroke-linecap:butt;stroke-linejoin:miter;stroke-opacity:1;fill-opacity:0.32941177"
       d="m 18.448737,1004.017 c -1.418305,1.1785 -1.203473,2.3334 -1.203473,4 0,4.1667 0,12.7917 0,18 0,5.2084 -0.214832,4.8215 1.203473,6 1.418305,1.1785 2.256513,1 6.017366,1 3.760854,0 7.822577,0 10.83126,0 2.005793,0 3.395587,0.1785 4.813893,-1 1.418305,-1.1785 1.203473,-2.3333 1.203473,-4 0,-6.6666 0,-16.6666 0,-20 0,-1.6666 0.214832,-2.8215 -1.203473,-4 -1.418306,-1.1785 -1.053039,-1 -4.813893,-1 -3.760854,0 -9.02605,0 -12.034733,0 -2.005793,0 -3.395588,-0.1785 -4.813893,1 z"
       id="path5594"
       inkscape:connector-curvature="0"
       sodipodi:nodetypes="sssssssssssss"
       inkscape:export-xdpi="68.542587"
       inkscape:export-ydpi="68.542587"
       inkscape:export-filename="/home/parallels/Downloads/yagf-0.9.4/src/isrc/MAFY/SingleBlock.png" />
  </g>
</svg>
