<?xml version="1.0" encoding="UTF-8" standalone="no"?>
<!-- Created with Inkscape (http://www.inkscape.org/) -->

<svg
   xmlns:dc="http://purl.org/dc/elements/1.1/"
   xmlns:cc="http://creativecommons.org/ns#"
   xmlns:rdf="http://www.w3.org/1999/02/22-rdf-syntax-ns#"
   xmlns:svg="http://www.w3.org/2000/svg"
   xmlns="http://www.w3.org/2000/svg"
   xmlns:sodipodi="http://sodipodi.sourceforge.net/DTD/sodipodi-0.dtd"
   xmlns:inkscape="http://www.inkscape.org/namespaces/inkscape"
   width="64"
   height="64"
   id="svg6288"
   version="1.1"
   inkscape:version="0.48.3.1 r9886"
   sodipodi:docname="split.svg"
   inkscape:export-filename="/home/parallels/Downloads/yagf-0.9.4/src/isrc/MAFY/split.png"
   inkscape:export-xdpi="65.454544"
   inkscape:export-ydpi="65.454544">
  <title
     id="title3017">Spli</title>
  <defs
     id="defs6290" />
  <sodipodi:namedview
     id="base"
     pagecolor="#ffffff"
     bordercolor="#666666"
     borderopacity="1.0"
     inkscape:pageopacity="0.0"
     inkscape:pageshadow="2"
     inkscape:zoom="3.959798"
     inkscape:cx="-70.448292"
     inkscape:cy="18.874137"
     inkscape:document-units="px"
     inkscape:current-layer="layer1"
     showgrid="false"
     inkscape:window-width="1423"
     inkscape:window-height="906"
     inkscape:window-x="65"
     inkscape:window-y="24"
     inkscape:window-maximized="1" />
  <metadata
     id="metadata6293">
    <rdf:RDF>
      <cc:Work
         rdf:about="">
        <dc:format>image/svg+xml</dc:format>
        <dc:type
           rdf:resource="http://purl.org/dc/dcmitype/StillImage" />
        <dc:title>Spli</dc:title>
        <dc:creator>
          <cc:Agent>
            <dc:title>Nastya Bekassova</dc:title>
          </cc:Agent>
        </dc:creator>
        <dc:rights>
          <cc:Agent>
            <dc:title>Nastya Bekassova</dc:title>
          </cc:Agent>
        </dc:rights>
        <dc:description>More Air for YAGF icon set</dc:description>
        <dc:source>symmetrica.net/~bekassova/</dc:source>
        <cc:license
           rdf:resource="http://www.gnu.org/copyleft/gpl.html" />
      </cc:Work>
    </rdf:RDF>
  </metadata>
  <g
     inkscape:label="Layer 1"
     inkscape:groupmode="layer"
     id="layer1"
     transform="translate(0,-988.36218)">
    <path
       inkscape:connector-curvature="0"
       style="font-size:medium;font-style:normal;font-variant:normal;font-weight:normal;font-stretch:normal;text-indent:0;text-align:start;text-decoration:none;line-height:normal;letter-spacing:normal;word-spacing:normal;text-transform:none;direction:ltr;block-progression:tb;writing-mode:lr-tb;text-anchor:start;baseline-shift:baseline;color:#000000;fill:#003092;fill-opacity:0.30588236;fill-rule:nonzero;stroke:none;stroke-width:1;marker:none;visibility:visible;display:inline;overflow:visible;enable-background:accumulate;font-family:Sans;-inkscape-font-specification:Sans"
       d="m 19.335034,1005.5576 c -1.37468,0 -2.5,1.1242 -2.5,2.5 l 0,10 c 0,1.3747 1.12426,2.5 2.5,2.5 l 10,0 c 1.37499,0 2.5,-1.125 2.5,-2.5 l 0,-10 c 0,-1.375 -1.12501,-2.5 -2.5,-2.5 l -10,0 z m 18,0 c -1.37468,0 -2.5,1.1242 -2.5,2.5 l 0,10 c 0,1.375 1.12501,2.5 2.5,2.5 l 10,0 c 1.37499,0 2.5,-1.125 2.5,-2.5 l 0,-10 c 0,-1.375 -1.12501,-2.5 -2.5,-2.5 l -10,0 z m -18,1 10,0 c 0.83501,0 1.5,0.665 1.5,1.5 l 0,10 c 0,0.835 -0.66499,1.5 -1.5,1.5 l -10,0 c -0.83626,0 -1.5,-0.6647 -1.5,-1.5 l 0,-10 c 0,-0.8363 0.66468,-1.5 1.5,-1.5 z m 18,0 10,0 c 0.83501,0 1.5,0.665 1.5,1.5 l 0,10 c 0,0.835 -0.66499,1.5 -1.5,1.5 l -10,0 c -0.83501,0 -1.5,-0.665 -1.5,-1.5 l 0,-10 c 0,-0.8363 0.66468,-1.5 1.5,-1.5 z m -18,17 c -1.37498,0 -2.5,1.125 -2.5,2.5 l 0,10 c 0,1.3747 1.12426,2.5 2.5,2.5 l 10,0 c 1.37499,0 2.5,-1.125 2.5,-2.5 l 0,-10 c 0,-1.375 -1.12501,-2.5 -2.5,-2.5 l -10,0 z m 18,0 c -1.37499,0 -2.5,1.125 -2.5,2.5 l 0,10 c 0,1.375 1.12501,2.5 2.5,2.5 l 10,0 c 1.37499,0 2.5,-1.125 2.5,-2.5 l 0,-10 c 0,-1.375 -1.12501,-2.5 -2.5,-2.5 l -10,0 z m -18,1 10,0 c 0.83501,0 1.5,0.665 1.5,1.5 l 0,10 c 0,0.835 -0.66499,1.5 -1.5,1.5 l -10,0 c -0.83626,0 -1.5,-0.6647 -1.5,-1.5 l 0,-10 c 0,-0.835 0.66498,-1.5 1.5,-1.5 z m 18,0 10,0 c 0.83501,0 1.5,0.665 1.5,1.5 l 0,10 c 0,0.835 -0.66499,1.5 -1.5,1.5 l -10,0 c -0.83501,0 -1.5,-0.665 -1.5,-1.5 l 0,-10 c 0,-0.835 0.66499,-1.5 1.5,-1.5 z"
       id="path5223"
       inkscape:export-filename="/home/parallels/Downloads/yagf-0.9.4/src/isrc/MAFY/split.png"
       inkscape:export-xdpi="65.454544"
       inkscape:export-ydpi="65.454544" />
    <path
       style="fill:#003092;fill-opacity:0.30588236;stroke:#000092;stroke-width:0.66872096000000003;stroke-linejoin:round;stroke-miterlimit:4;stroke-opacity:1;stroke-dasharray:none"
       d="m 18.358003,48.553124 c -0.361645,-0.399614 -0.417947,-1.193803 -0.417947,-5.895506 0,-4.943339 0.04168,-5.471395 0.461826,-5.851627 0.400342,-0.362304 1.203149,-0.417947 6.029994,-0.417947 4.8714,0 5.611537,0.05226 5.914761,0.417621 0.503982,0.607261 0.503982,11.184403 0,11.791664 -0.303374,0.365544 -1.046424,0.417622 -5.95864,0.417622 -5.116138,0 -5.648978,-0.04081 -6.029994,-0.461827 z"
       id="path3752"
       inkscape:connector-curvature="0"
       transform="translate(0,988.36218)"
       inkscape:export-filename="/home/parallels/Downloads/yagf-0.9.4/src/isrc/MAFY/split.png"
       inkscape:export-xdpi="65.454544"
       inkscape:export-ydpi="65.454544" />
    <path
       style="fill:#003092;fill-opacity:0.30588236;stroke:#000092;stroke-width:0.66872096000000003;stroke-linejoin:round;stroke-miterlimit:4;stroke-opacity:1;stroke-dasharray:none"
       d="m 36.343127,48.597329 c -0.503982,-0.607261 -0.503982,-11.184403 0,-11.791664 0.303458,-0.365644 1.048157,-0.417621 5.983461,-0.417621 5.538696,0 5.643713,0.0098 6.029993,0.561267 0.58116,0.829722 0.58116,10.67465 0,11.504372 -0.38628,0.551493 -0.491297,0.561268 -6.029993,0.561268 -4.935304,0 -5.680003,-0.05198 -5.983461,-0.417622 z"
       id="path3754"
       inkscape:connector-curvature="0"
       transform="translate(0,988.36218)"
       inkscape:export-filename="/home/parallels/Downloads/yagf-0.9.4/src/isrc/MAFY/split.png"
       inkscape:export-xdpi="65.454544"
       inkscape:export-ydpi="65.454544" />
    <path
       style="fill:#003092;fill-opacity:0.30588236;stroke:#000092;stroke-width:0.66872096000000003;stroke-linejoin:round;stroke-miterlimit:4;stroke-opacity:1;stroke-dasharray:none"
       d="m 18.445132,30.579666 c -0.473649,-0.473649 -0.505076,-0.841793 -0.505076,-5.916607 0,-5.966565 0.01934,-6.043836 1.586611,-6.337857 0.447018,-0.08386 2.939714,-0.116736 5.539323,-0.07306 4.132325,0.06943 4.783181,0.136041 5.176902,0.529788 0.395633,0.395658 0.459888,1.053329 0.528939,5.413898 0.04323,2.729942 0.01465,5.218331 -0.06351,5.529754 -0.330529,1.316933 -0.527687,1.359156 -6.346577,1.359156 -5.074814,0 -5.442959,-0.03143 -5.916608,-0.505077 z"
       id="path3756"
       inkscape:connector-curvature="0"
       transform="translate(0,988.36218)"
       inkscape:export-filename="/home/parallels/Downloads/yagf-0.9.4/src/isrc/MAFY/split.png"
       inkscape:export-xdpi="65.454544"
       inkscape:export-ydpi="65.454544" />
    <path
       style="fill:#003092;fill-opacity:0.30588236;stroke:#000092;stroke-width:0.66872096000000003;stroke-linejoin:round;stroke-miterlimit:4;stroke-opacity:1;stroke-dasharray:none"
       d="m 36.486742,30.726703 c -0.454382,-0.331873 -0.495815,-0.753117 -0.566901,-5.763658 -0.0718,-5.061178 -0.04507,-5.444673 0.419629,-6.018548 l 0.496321,-0.61293 5.425369,0 c 4.980778,0 5.468931,0.03942 5.956959,0.481082 0.508799,0.460456 0.531589,0.712186 0.531589,5.871512 0,5.053712 -0.03155,5.421979 -0.505076,5.895505 -0.473472,0.473473 -0.841793,0.505077 -5.886378,0.505077 -4.245791,0 -5.484742,-0.07555 -5.871512,-0.35804 z"
       id="path3758"
       inkscape:connector-curvature="0"
       transform="translate(0,988.36218)"
       inkscape:export-xdpi="65.454544"
       inkscape:export-ydpi="65.454544"
       inkscape:export-filename="/home/parallels/Downloads/yagf-0.9.4/src/isrc/MAFY/split.png" />
  </g>
</svg>
