<?xml version="1.0" encoding="UTF-8" standalone="no"?>
<!-- Created with Inkscape (http://www.inkscape.org/) -->

<svg
   xmlns:dc="http://purl.org/dc/elements/1.1/"
   xmlns:cc="http://creativecommons.org/ns#"
   xmlns:rdf="http://www.w3.org/1999/02/22-rdf-syntax-ns#"
   xmlns:svg="http://www.w3.org/2000/svg"
   xmlns="http://www.w3.org/2000/svg"
   xmlns:sodipodi="http://sodipodi.sourceforge.net/DTD/sodipodi-0.dtd"
   xmlns:inkscape="http://www.inkscape.org/namespaces/inkscape"
   width="744.09448819"
   height="1052.3622047"
   id="svg2"
   version="1.1"
   inkscape:version="0.48.5 r10040"
   sodipodi:docname="table.svg">
  <title
     id="title3824">Table</title>
  <defs
     id="defs4" />
  <sodipodi:namedview
     id="base"
     pagecolor="#ffffff"
     bordercolor="#666666"
     borderopacity="1.0"
     inkscape:pageopacity="0.0"
     inkscape:pageshadow="2"
     inkscape:zoom="11.2"
     inkscape:cx="239.66861"
     inkscape:cy="792.92587"
     inkscape:document-units="px"
     inkscape:current-layer="layer1"
     showgrid="false"
     inkscape:window-width="1920"
     inkscape:window-height="1138"
     inkscape:window-x="-8"
     inkscape:window-y="-8"
     inkscape:window-maximized="1" />
  <metadata
     id="metadata7">
    <rdf:RDF>
      <cc:Work
         rdf:about="">
        <dc:format>image/svg+xml</dc:format>
        <dc:type
           rdf:resource="http://purl.org/dc/dcmitype/StillImage" />
        <dc:title>Table</dc:title>
        <dc:creator>
          <cc:Agent>
            <dc:title>Nastya Bekassova</dc:title>
          </cc:Agent>
        </dc:creator>
        <cc:license
           rdf:resource="GPL" />
      </cc:Work>
    </rdf:RDF>
  </metadata>
  <g
     inkscape:label="Layer 1"
     inkscape:groupmode="layer"
     id="layer1">
    <g
       id="g2999"
       transform="translate(238.53571,267.18361)">
      <g
         id="g2987">
        <line
           id="line2989"
           opacity=""
           y2="0"
           x2="0"
           y1="0"
           x1="0"
           style="stroke:#449fdb;stroke-width:1" />
      </g>
    </g>
    <g
       id="g3018"
       transform="translate(190.05357,229.93361)">
      <g
         id="g3006">
        <line
           id="line3008"
           opacity=""
           y2="0"
           x2="0"
           y1="0"
           x1="0"
           style="stroke:#449fdb;stroke-width:1" />
      </g>
      <path
         id="path3010"
         d="M 0.17857143,4.0535714 0,30 32,30 32.178571,4.0535714 z M 12,20 l 0,-6 8,0 0,6 z m 8,2 0,6 -8,0 0,-6 z m 0,-16 0,6 -8,0 0,-6 z m -10,0 0,6 -8,0 0,-6 z m -8,8 8,0 0,6 -8,0 z m 20,0 8,0 0,6 -8,0 z m 0,-2 0,-6 8,0 0,6 z m -20,10 8,0 0,6 -8,0 z m 20,6 0,-6 8,0 0,6 z"
         inkscape:connector-curvature="0"
         style="fill:#000056;fill-opacity:1"
         sodipodi:nodetypes="cccccccccccccccccccccccccccccccccccccccccccccccccc" />
    </g>
  </g>
</svg>
