<?xml version="1.0" encoding="UTF-8" standalone="no"?>
<!-- Created with Inkscape (http://www.inkscape.org/) -->

<svg
   xmlns:dc="http://purl.org/dc/elements/1.1/"
   xmlns:cc="http://creativecommons.org/ns#"
   xmlns:rdf="http://www.w3.org/1999/02/22-rdf-syntax-ns#"
   xmlns:svg="http://www.w3.org/2000/svg"
   xmlns="http://www.w3.org/2000/svg"
   xmlns:xlink="http://www.w3.org/1999/xlink"
   xmlns:sodipodi="http://sodipodi.sourceforge.net/DTD/sodipodi-0.dtd"
   xmlns:inkscape="http://www.inkscape.org/namespaces/inkscape"
   width="744.09448819"
   height="1052.3622047"
   id="svg2"
   version="1.1"
   inkscape:version="0.48.5 r10040"
   sodipodi:docname="table.svg">
  <title
     id="title3824">Table</title>
  <defs
     id="defs4">
    <linearGradient
       inkscape:collect="always"
       xlink:href="#linearGradient3832-4"
       id="linearGradient3891"
       gradientUnits="userSpaceOnUse"
       gradientTransform="translate(-13.904963,17.452481)"
       x1="26.587048"
       y1="14.835155"
       x2="15.791791"
       y2="5.9762368" />
    <linearGradient
       inkscape:collect="always"
       id="linearGradient3832-4">
      <stop
         style="stop-color:#500092;stop-opacity:1"
         offset="0"
         id="stop3834-8" />
      <stop
         style="stop-color:#d2d2d2;stop-opacity:1"
         offset="1"
         id="stop3836-8" />
    </linearGradient>
    <linearGradient
       y2="5.9762368"
       x2="15.791791"
       y1="14.835155"
       x1="26.587048"
       gradientTransform="translate(95.937783,222.35575)"
       gradientUnits="userSpaceOnUse"
       id="linearGradient3993"
       xlink:href="#linearGradient3832-4"
       inkscape:collect="always" />
    <linearGradient
       inkscape:collect="always"
       xlink:href="#linearGradient3832-4"
       id="linearGradient3781"
       x1="30.407387"
       y1="27.85742"
       x2="2.1265316"
       y2="4.9648376"
       gradientUnits="userSpaceOnUse" />
  </defs>
  <sodipodi:namedview
     id="base"
     pagecolor="#ffffff"
     bordercolor="#666666"
     borderopacity="1.0"
     inkscape:pageopacity="0.0"
     inkscape:pageshadow="2"
     inkscape:zoom="11.313708"
     inkscape:cx="259.24494"
     inkscape:cy="811.12641"
     inkscape:document-units="px"
     inkscape:current-layer="layer1"
     showgrid="false"
     inkscape:window-width="1920"
     inkscape:window-height="1018"
     inkscape:window-x="-8"
     inkscape:window-y="-8"
     inkscape:window-maximized="1" />
  <metadata
     id="metadata7">
    <rdf:RDF>
      <cc:Work
         rdf:about="">
        <dc:format>image/svg+xml</dc:format>
        <dc:type
           rdf:resource="http://purl.org/dc/dcmitype/StillImage" />
        <dc:title>Table</dc:title>
        <dc:creator>
          <cc:Agent>
            <dc:title>Nastya Bekassova</dc:title>
          </cc:Agent>
        </dc:creator>
        <cc:license
           rdf:resource="GPL" />
      </cc:Work>
    </rdf:RDF>
  </metadata>
  <g
     inkscape:label="Layer 1"
     inkscape:groupmode="layer"
     id="layer1">
    <g
       id="g2999"
       transform="translate(238.53571,267.18361)">
      <g
         id="g2987">
        <line
           id="line2989"
           opacity=""
           y2="0"
           x2="0"
           y1="0"
           x1="0"
           style="stroke:#449fdb;stroke-width:1" />
      </g>
    </g>
    <g
       id="g3018"
       transform="translate(190.05357,229.93361)">
      <g
         id="g3006">
        <line
           id="line3008"
           opacity=""
           y2="0"
           x2="0"
           y1="0"
           x1="0"
           style="stroke:#449fdb;stroke-width:1" />
      </g>
      <path
         id="path3010"
         d="M 0.66964286,4.4553571 C 0.21648989,4.7629302 0.17857142,6.2232146 0.17857142,6.2232146 c 0,0 0.3918185,16.4021694 0.52312588,22.0339574 C 0.71999,29.041746 0.6443955,29.232861 0.85746007,29.555815 1.1677192,30.026092 1.8043767,30.006144 2.1927462,30.005416 11.683345,29.987635 30.383929,30 30.383929,30 c 0,0 1.052055,0.05651 1.482142,-0.267857 0.448835,-0.338503 0.223209,-2.348214 0.223209,-2.348214 L 32.17857,5.2276785 c 0,0 -0.04592,-0.6586235 -0.267854,-0.8616071 C 31.650108,4.12772 30.874997,4.1428571 30.874997,4.1428571 L 3.0982119,4.1875 c 0,0 -1.9686475,-0.04431 -2.42856904,0.2678571 z M 11.285714,20 l -0.04419,-6.83969 9.304894,-0.07544 0.01517,7.008884 z m 9.317839,0.717876 0.127223,8.355728 -9.268285,0.03125 -0.176777,-8.444117 z M 20.686583,5.3241432 20.624083,11.911612 11.285714,12 l 0,-6.7071068 z M 10.629445,5.2928935 10.618718,12 1.2045049,11.91161 1.1732549,6.7531389 c 0,0 -0.089119,-0.7989027 0.21875,-1.095971 0.2460189,-0.2373878 0.71247,-0.3071372 0.71247,-0.3071372 z m -9.4249371,7.7348345 9.4293771,0.121854 -0.103548,6.938802 -9.1490484,-0.176776 z m 19.9937181,0.08839 10.038564,-0.0038 0.0846,6.929651 L 21.375,20 z M 21.375,12 l 0,-6.7071068 8.908044,-0.040403 c 0,0 0.507972,-0.07012 0.732772,0.1546796 0.207107,0.2071068 0.220971,0.724 0.220971,0.724 l 0,5.9534272 z m -19.9937184,8.577711 9.2686874,0.07008 0.145527,8.412867 -7.9053307,-0.07387 c 0,0 -0.7293184,0.119898 -1.0249687,-0.170765 C 1.5433319,28.49959 1.6076141,27.618745 1.6076141,27.618745 z M 21.507583,29.016466 21.375,20.666099 l 9.826745,0.09375 0.231695,7.220948 c 0,0 -0.15118,0.44458 -0.39331,0.689698 -0.243975,0.246994 -0.853554,0.34375 -0.853554,0.34375 z"
         inkscape:connector-curvature="0"
         style="fill:url(#linearGradient3781);fill-opacity:1;stroke:#0000c8;stroke-width:0.2;stroke-miterlimit:4;stroke-opacity:1;stroke-dasharray:none"
         sodipodi:nodetypes="scssscsccaccscccccccccccccccccccscccccccccccccccscccccccsccccccscc" />
    </g>
  </g>
</svg>
