<?xml version="1.0" encoding="UTF-8" standalone="no"?>
<!-- Created with Inkscape (http://www.inkscape.org/) -->

<svg
   xmlns:dc="http://purl.org/dc/elements/1.1/"
   xmlns:cc="http://creativecommons.org/ns#"
   xmlns:rdf="http://www.w3.org/1999/02/22-rdf-syntax-ns#"
   xmlns:svg="http://www.w3.org/2000/svg"
   xmlns="http://www.w3.org/2000/svg"
   xmlns:sodipodi="http://sodipodi.sourceforge.net/DTD/sodipodi-0.dtd"
   xmlns:inkscape="http://www.inkscape.org/namespaces/inkscape"
   width="71"
   height="81"
   id="svg6288"
   version="1.1"
   inkscape:version="0.48.5 r10040"
   sodipodi:docname="ZoomOut.svg">
  <title
     id="title3782">Trashcan</title>
  <defs
     id="defs6290" />
  <sodipodi:namedview
     id="base"
     pagecolor="#ffffff"
     bordercolor="#666666"
     borderopacity="1.0"
     inkscape:pageopacity="0.0"
     inkscape:pageshadow="2"
     inkscape:zoom="8"
     inkscape:cx="73.484542"
     inkscape:cy="24.560083"
     inkscape:document-units="px"
     inkscape:current-layer="layer1"
     showgrid="false"
     inkscape:window-width="1920"
     inkscape:window-height="1138"
     inkscape:window-x="-8"
     inkscape:window-y="-8"
     inkscape:window-maximized="1">
    <inkscape:grid
       type="xygrid"
       id="grid3010"
       empspacing="5"
       visible="true"
       enabled="true"
       snapvisiblegridlinesonly="true" />
  </sodipodi:namedview>
  <metadata
     id="metadata6293">
    <rdf:RDF>
      <cc:Work
         rdf:about="">
        <dc:format>image/svg+xml</dc:format>
        <dc:type
           rdf:resource="http://purl.org/dc/dcmitype/StillImage" />
        <dc:title>Trashcan</dc:title>
        <dc:creator>
          <cc:Agent>
            <dc:title>Nastya Bekassova</dc:title>
          </cc:Agent>
        </dc:creator>
        <dc:rights>
          <cc:Agent>
            <dc:title>Nastya Bekassova</dc:title>
          </cc:Agent>
        </dc:rights>
        <dc:description>More Air for YAGF icon set</dc:description>
        <dc:source>symmetrica.net/~bekassova/</dc:source>
        <cc:license
           rdf:resource="http://www.gnu.org/copyleft/gpl.html" />
      </cc:Work>
    </rdf:RDF>
  </metadata>
  <g
     inkscape:label="Layer 1"
     inkscape:groupmode="layer"
     id="layer1"
     transform="translate(0,-971.36218)">
    <path
       style="fill:#000092;fill-opacity:1"
       d="m 53.177879,988.0171 c -1.105377,-0.7506 -0.842695,-0.6737 -1.343454,-0.8434 -0.699792,-0.2372 -1.760266,-0.1777 -2.207107,-0.2059 -12.193636,-0.7697 -24.079303,0.469 -37.807613,0.5501 -3.9211196,0.2787 -6.5576097,4.2349 -6.0597997,7.9752 -0.48182,1.5918 1.4073801,0.8126 2.3400001,0.99 17.2199996,0 31.1899956,-0.25 48.4099956,-0.25 0.179625,-2.8956 -0.426774,-6.0174 -2.975867,-7.8473"
       id="path6254"
       inkscape:connector-curvature="0"
       sodipodi:nodetypes="casccccc" />
    <path
       style="fill:#000092;fill-opacity:1"
       d="m 25.987245,978.47467 c -1.55706,0.0103 -3.10062,0.0233 -4.65625,0.0625 -2.63802,0.42756 -3.3284,3.17603 -3.40625,5.43753 0.0497,1.1475 -0.73116,2.5406 0,3.5 1.07782,0.2771 3.39225,0.8046 5.02053,0.3284 l -0.39553,-4.8284 16.906247,0 c 0.20931,1.2974 -0.46005,3.2179 -0.5625,4.4375 1.65416,0.3988 3.36523,0.8345 4.84375,0.031 2.35414,2.3521 1.25649,-2.0329 0.875,-4.1875 -0.49847,-1.2839 -0.14456,-2.7891 -2.65625,-4.18753 -0.58531,-0.36171 -1.26077,-0.5956 -1.9375,-0.59375 -4.67108,0.0328 -9.36007,-0.031 -14.031247,0 z"
       id="path6252"
       inkscape:connector-curvature="0"
       sodipodi:nodetypes="ccccccccccccsc" />
    <path
       style="fill:#000092;fill-opacity:1"
       d="m 30.901079,998.4556 c -7.20122,0 -14.3933,0 -21.5937496,0.031 -2.7156901,0.1645 -4.1610801,3.0907 -3.5312501,5.5313 1.2253201,13.3047 2.3921501,26.6061 3.6562501,39.9062 0.48739,2.8094 3.4157996,4.4019 6.0937496,4.0313 10.98331,-0.015 21.95517,0.054 32.9375,0 2.84271,-0.2302 4.68859,-3.0187 4.5625,-5.7188 1.18889,-13.2463 2.44327,-26.5011 3.59375,-39.75 0.0323,-2.2114 -1.88909,-4.0951 -4.09375,-4.0312 -7.20095,0.01 -14.42378,0 -21.625,0 z m -20.4205,5.5 12.19325,-0.1919 0.24242,38.9092 -8.31067,-0.081 z m 14.49372,-0.3535 10.56695,-0.1036 0.375,39.4472 -10.74372,-0.073 z m 12.5429,0.01 13.88388,-0.088 -3.84467,39.7275 -9.2955,-0.2349 z"
       id="path6248"
       inkscape:connector-curvature="0"
       sodipodi:nodetypes="cccccccccscccccccccccccccc" />
  </g>
</svg>
