<?xml version="1.0" encoding="UTF-8" standalone="no"?>
<!-- Generated by IcoMoon.io -->

<svg
   xmlns:dc="http://purl.org/dc/elements/1.1/"
   xmlns:cc="http://creativecommons.org/ns#"
   xmlns:rdf="http://www.w3.org/1999/02/22-rdf-syntax-ns#"
   xmlns:svg="http://www.w3.org/2000/svg"
   xmlns="http://www.w3.org/2000/svg"
   xmlns:xlink="http://www.w3.org/1999/xlink"
   xmlns:sodipodi="http://sodipodi.sourceforge.net/DTD/sodipodi-0.dtd"
   xmlns:inkscape="http://www.inkscape.org/namespaces/inkscape"
   version="1.1"
   width="32"
   height="32"
   viewBox="0 0 32 32"
   id="svg2"
   inkscape:version="0.48.5 r10040"
   sodipodi:docname="settings.svg">
  <title
     id="title3800">Settings</title>
  <metadata
     id="metadata11">
    <rdf:RDF>
      <cc:Work
         rdf:about="">
        <dc:format>image/svg+xml</dc:format>
        <dc:type
           rdf:resource="http://purl.org/dc/dcmitype/StillImage" />
        <dc:title>Settings</dc:title>
        <dc:creator>
          <cc:Agent>
            <dc:title>Anastassiaya Bekassova</dc:title>
          </cc:Agent>
        </dc:creator>
        <cc:license
           rdf:resource="GPL" />
      </cc:Work>
    </rdf:RDF>
  </metadata>
  <defs
     id="defs9">
    <linearGradient
       inkscape:collect="always"
       xlink:href="#linearGradient3832-4"
       id="linearGradient3891"
       gradientUnits="userSpaceOnUse"
       gradientTransform="translate(-13.904963,17.452481)"
       x1="26.587048"
       y1="14.835155"
       x2="15.791791"
       y2="5.9762368" />
    <linearGradient
       inkscape:collect="always"
       id="linearGradient3832-4">
      <stop
         style="stop-color:#500092;stop-opacity:1"
         offset="0"
         id="stop3834-8" />
      <stop
         style="stop-color:#d2d2d2;stop-opacity:1"
         offset="1"
         id="stop3836-8" />
    </linearGradient>
    <linearGradient
       y2="5.9762368"
       x2="15.791791"
       y1="14.835155"
       x1="26.587048"
       gradientTransform="translate(52.491525,30.491525)"
       gradientUnits="userSpaceOnUse"
       id="linearGradient3908"
       xlink:href="#linearGradient3832-4"
       inkscape:collect="always" />
    <linearGradient
       inkscape:collect="always"
       xlink:href="#linearGradient3832-4"
       id="linearGradient3781"
       x1="0"
       y1="16"
       x2="32"
       y2="16"
       gradientUnits="userSpaceOnUse"
       gradientTransform="matrix(-1,0,0,1,32,0)" />
  </defs>
  <sodipodi:namedview
     pagecolor="#ffffff"
     bordercolor="#666666"
     borderopacity="1"
     objecttolerance="10"
     gridtolerance="10"
     guidetolerance="10"
     inkscape:pageopacity="0"
     inkscape:pageshadow="2"
     inkscape:window-width="1241"
     inkscape:window-height="831"
     id="namedview7"
     showgrid="false"
     inkscape:zoom="7.375"
     inkscape:cx="-5.1525424"
     inkscape:cy="16"
     inkscape:window-x="0"
     inkscape:window-y="0"
     inkscape:window-maximized="0"
     inkscape:current-layer="svg2" />
  <g
     id="icomoon-ignore" />
  <path
     d="M 18,4 V 3.5 C 18,2.675 18.675,2 19.5,2 h 5 C 25.325,2 26,2.675 26,3.5 V 4 h 6 V 8 H 26 V 8.5 C 26,9.325 25.325,10 24.5,10 h -5 C 18.675,10 18,9.325 18,8.5 V 8 H 0 V 4 h 18 z m 6,4 V 4 h -4 v 4 h 4 z M 6,13.5 C 6,12.675 6.675,12 7.5,12 h 5 c 0.825,0 1.5,0.675 1.5,1.5 V 14 h 18 v 4 H 14 v 0.5 c 0,0.825 -0.675,1.5 -1.5,1.5 h -5 C 6.675,20 6,19.325 6,18.5 V 18 H 0 V 14 H 6 V 13.5 z M 12,18 V 14 H 8 v 4 h 4 z m 6,5.5 C 18,22.675 18.675,22 19.5,22 h 5 c 0.825,0 1.5,0.675 1.5,1.5 V 24 h 6 v 4 h -6 v 0.5 c 0,0.825 -0.675,1.5 -1.5,1.5 h -5 C 18.675,30 18,29.325 18,28.5 V 28 H 0 v -4 h 18 v -0.5 z m 6,4.5 v -4 h -4 v 4 h 4 z"
     id="path5"
     style="fill:url(#linearGradient3781);fill-opacity:1;stroke-width:0.10000000000000001;stroke-miterlimit:4;stroke-dasharray:none;stroke:#0000c8;stroke-opacity:1"
     inkscape:connector-curvature="0" />
</svg>
