<?xml version="1.0" encoding="UTF-8" standalone="no"?>
<!-- Created with Inkscape (http://www.inkscape.org/) -->

<svg
   xmlns:dc="http://purl.org/dc/elements/1.1/"
   xmlns:cc="http://creativecommons.org/ns#"
   xmlns:rdf="http://www.w3.org/1999/02/22-rdf-syntax-ns#"
   xmlns:svg="http://www.w3.org/2000/svg"
   xmlns="http://www.w3.org/2000/svg"
   xmlns:sodipodi="http://sodipodi.sourceforge.net/DTD/sodipodi-0.dtd"
   xmlns:inkscape="http://www.inkscape.org/namespaces/inkscape"
   width="744.09448819"
   height="1052.3622047"
   id="svg3047"
   version="1.1"
   inkscape:version="0.48.5 r10040"
   sodipodi:docname="up_arrow.svg"
   inkscape:export-filename="C:\Users\khmer\svg\New\up_arrow.png"
   inkscape:export-xdpi="5.2906628"
   inkscape:export-ydpi="5.2906628">
  <defs
     id="defs3049" />
  <sodipodi:namedview
     id="base"
     pagecolor="#ffffff"
     bordercolor="#666666"
     borderopacity="1.0"
     inkscape:pageopacity="0.0"
     inkscape:pageshadow="2"
     inkscape:zoom="0.98994949"
     inkscape:cx="603.31369"
     inkscape:cy="521.4629"
     inkscape:document-units="px"
     inkscape:current-layer="layer1"
     showgrid="false"
     inkscape:window-width="1920"
     inkscape:window-height="1138"
     inkscape:window-x="-8"
     inkscape:window-y="-8"
     inkscape:window-maximized="1" />
  <metadata
     id="metadata3052">
    <rdf:RDF>
      <cc:Work
         rdf:about="">
        <dc:format>image/svg+xml</dc:format>
        <dc:type
           rdf:resource="http://purl.org/dc/dcmitype/StillImage" />
        <dc:title></dc:title>
      </cc:Work>
    </rdf:RDF>
  </metadata>
  <g
     inkscape:label="Layer 1"
     inkscape:groupmode="layer"
     id="layer1">
    <g
       id="g3066"
       transform="translate(102.64286,233.64789)">
      <path
         id="path3058"
         d="m 236,99.82236 -110,110 c -11,11 -11,27 0,38 11,11 27,11 38,0 l 64,-63 L 229.01015,337 c 0.0996,14.99967 12,27 27,27 15,0 27.09957,-12.00033 27,-27 L 282,184.82236 l 63,63 c 11,11 28,11 39,0 11,-11 11,-27 0,-38 l -110,-110 c -5,-5 -12,-8 -19,-8 -7,0 -14,3 -19,8 z"
         inkscape:connector-curvature="0"
         sodipodi:nodetypes="sssccssscssssss"
         style="fill:#00b100;fill-opacity:1" />
    </g>
  </g>
</svg>
