<?xml version="1.0" encoding="UTF-8" standalone="no"?>
<!-- Created with Inkscape (http://www.inkscape.org/) -->

<svg
   xmlns:dc="http://purl.org/dc/elements/1.1/"
   xmlns:cc="http://creativecommons.org/ns#"
   xmlns:rdf="http://www.w3.org/1999/02/22-rdf-syntax-ns#"
   xmlns:svg="http://www.w3.org/2000/svg"
   xmlns="http://www.w3.org/2000/svg"
   xmlns:xlink="http://www.w3.org/1999/xlink"
   xmlns:sodipodi="http://sodipodi.sourceforge.net/DTD/sodipodi-0.dtd"
   xmlns:inkscape="http://www.inkscape.org/namespaces/inkscape"
   width="64"
   height="64"
   id="svg6288"
   version="1.1"
   inkscape:version="0.48.3.1 r9886"
   sodipodi:docname="ZoomOut.svg"
   inkscape:export-filename="/home/parallels/Downloads/yagf-0.9.4/src/isrc/MAFY/ZoomOut.png"
   inkscape:export-xdpi="79.118912"
   inkscape:export-ydpi="79.118912">
  <title
     id="title3803">Zoom Out</title>
  <defs
     id="defs6290">
    <linearGradient
       inkscape:collect="always"
       id="linearGradient3778">
      <stop
         style="stop-color:#6bb2c1;stop-opacity:1;"
         offset="0"
         id="stop3780" />
      <stop
         style="stop-color:#6bb2c1;stop-opacity:0;"
         offset="1"
         id="stop3782" />
    </linearGradient>
    <linearGradient
       inkscape:collect="always"
       xlink:href="#linearGradient3778"
       id="linearGradient3784"
       x1="35"
       y1="33"
       x2="20"
       y2="18"
       gradientUnits="userSpaceOnUse" />
  </defs>
  <sodipodi:namedview
     id="base"
     pagecolor="#ffffff"
     bordercolor="#666666"
     borderopacity="1.0"
     inkscape:pageopacity="0.0"
     inkscape:pageshadow="2"
     inkscape:zoom="8.0000001"
     inkscape:cx="-5.9404643"
     inkscape:cy="48.219128"
     inkscape:document-units="px"
     inkscape:current-layer="layer1"
     showgrid="true"
     inkscape:window-width="1423"
     inkscape:window-height="906"
     inkscape:window-x="65"
     inkscape:window-y="24"
     inkscape:window-maximized="1">
    <inkscape:grid
       type="xygrid"
       id="grid3010" />
  </sodipodi:namedview>
  <metadata
     id="metadata6293">
    <rdf:RDF>
      <cc:Work
         rdf:about="">
        <dc:format>image/svg+xml</dc:format>
        <dc:type
           rdf:resource="http://purl.org/dc/dcmitype/StillImage" />
        <dc:title>Zoom Out</dc:title>
        <dc:creator>
          <cc:Agent>
            <dc:title>Nastya Bekassova</dc:title>
          </cc:Agent>
        </dc:creator>
        <dc:rights>
          <cc:Agent>
            <dc:title>Nastya Bekassova</dc:title>
          </cc:Agent>
        </dc:rights>
        <dc:description>More Air for YAGF icon set</dc:description>
        <dc:source>symmetrica.net/~bekassova/</dc:source>
        <cc:license
           rdf:resource="http://www.gnu.org/copyleft/gpl.html" />
      </cc:Work>
    </rdf:RDF>
  </metadata>
  <g
     inkscape:label="Layer 1"
     inkscape:groupmode="layer"
     id="layer1"
     transform="translate(0,-988.36218)">
    <path
       sodipodi:type="arc"
       style="fill:#ffffff;fill-opacity:0;stroke:#000090;stroke-opacity:1;stroke-width:0.45141762;stroke-miterlimit:4;stroke-dasharray:none"
       id="path3790"
       sodipodi:cx="22.1875"
       sodipodi:cy="52.5625"
       sodipodi:rx="9.4375"
       sodipodi:ry="8.9375"
       d="m 31.625,52.5625 c 0,4.936045 -4.225313,8.9375 -9.4375,8.9375 -5.212187,0 -9.4375,-4.001455 -9.4375,-8.9375 0,-4.936045 4.225313,-8.9375 9.4375,-8.9375 5.212187,0 9.4375,4.001455 9.4375,8.9375 z"
       transform="matrix(1.4251776,0,0,1.490822,-4.6507653,936.15638)"
       inkscape:export-xdpi="78.477699"
       inkscape:export-ydpi="78.477699"
       inkscape:export-filename="/home/parallels/Downloads/yagf-0.9.4/src/isrc/MAFY/path3786.png" />
    <path
       style="font-size:medium;font-style:normal;font-variant:normal;font-weight:normal;font-stretch:normal;text-indent:0;text-align:start;text-decoration:none;line-height:normal;letter-spacing:normal;word-spacing:normal;text-transform:none;direction:ltr;block-progression:tb;writing-mode:lr-tb;text-anchor:start;baseline-shift:baseline;color:#000000;fill:#008e00;fill-opacity:1;fill-rule:nonzero;stroke:none;stroke-width:1;marker:none;visibility:visible;display:inline;overflow:visible;enable-background:accumulate;font-family:Sans;-inkscape-font-specification:Sans"
       d="m 16,1011.3622 c -0.0704,2.0289 -0.002,5.6995 0,6 7.15045,0.1915 14.90909,-0.2713 21,0 0,-2.6667 0,-3.3333 0,-6 -6.66666,0 -14.33333,0 -21,0 z m 2,1 c 6,0 12,0 18,0 0,2 0,2 0,4 -6,0 -13,0 -19,0 0,-2 0,-2 0,-4 z"
       id="path4411"
       inkscape:connector-curvature="0"
       sodipodi:nodetypes="cccccccccccc"
       inkscape:export-filename="/home/parallels/Downloads/yagf-0.9.4/src/isrc/MAFY/path3786.png"
       inkscape:export-xdpi="78.477699"
       inkscape:export-ydpi="78.477699" />
    <path
       style="fill:none;stroke:none"
       d="m 24.838892,38.89369 c -3.535321,-0.640846 -6.550636,-2.528979 -8.53982,-5.347472 -2.556761,-3.6227 -3.06782,-8.187064 -1.376581,-12.294515 1.292589,-3.139265 4.043825,-5.823261 7.290419,-7.112241 4.635255,-1.840314 10.04853,-0.784446 13.755216,2.682977 3.799625,3.554363 5.063914,9.150802 3.16104,13.992511 -1.141728,2.905038 -3.493965,5.471498 -6.308455,6.882979 -2.377947,1.192552 -5.455811,1.65365 -7.981819,1.195761 l 0,0 z m 12.220572,-12.906569 7.1e-5,-3.031249 -10.5625,0 -10.5625,0 0,3.069792 0,3.069792 10.562429,-0.03854 10.562429,-0.03854 7.1e-5,-3.03125 0,0 z"
       id="path2986"
       inkscape:connector-curvature="0"
       transform="translate(0,988.36218)"
       inkscape:export-filename="/home/parallels/Downloads/yagf-0.9.4/src/isrc/MAFY/path3786.png"
       inkscape:export-xdpi="78.477699"
       inkscape:export-ydpi="78.477699" />
    <path
       style="fill:none;stroke:none"
       d="m 24.838892,38.89369 c -3.535321,-0.640846 -6.550636,-2.528979 -8.53982,-5.347472 -2.556761,-3.6227 -3.06782,-8.187064 -1.376581,-12.294515 1.292589,-3.139265 4.043825,-5.823261 7.290419,-7.112241 4.635255,-1.840314 10.04853,-0.784446 13.755216,2.682977 3.799625,3.554363 5.063914,9.150802 3.16104,13.992511 -1.141728,2.905038 -3.493965,5.471498 -6.308455,6.882979 -2.377947,1.192552 -5.455811,1.65365 -7.981819,1.195761 l 0,0 z m 12.220572,-12.906569 7.1e-5,-3.031249 -10.5625,0 -10.5625,0 0,3.069792 0,3.069792 10.562429,-0.03854 10.562429,-0.03854 7.1e-5,-3.03125 0,0 z"
       id="path2988"
       inkscape:connector-curvature="0"
       transform="translate(0,988.36218)"
       inkscape:export-filename="/home/parallels/Downloads/yagf-0.9.4/src/isrc/MAFY/path3786.png"
       inkscape:export-xdpi="78.477699"
       inkscape:export-ydpi="78.477699" />
    <path
       style="fill:none;stroke:none"
       d="m 24.838892,38.89369 c -3.535321,-0.640846 -6.550636,-2.528979 -8.53982,-5.347472 -2.556761,-3.6227 -3.06782,-8.187064 -1.376581,-12.294515 1.292589,-3.139265 4.043825,-5.823261 7.290419,-7.112241 4.635255,-1.840314 10.04853,-0.784446 13.755216,2.682977 3.799625,3.554363 5.063914,9.150802 3.16104,13.992511 -1.141728,2.905038 -3.493965,5.471498 -6.308455,6.882979 -2.377947,1.192552 -5.455811,1.65365 -7.981819,1.195761 l 0,0 z m 12.220572,-12.906569 7.1e-5,-3.031249 -10.5625,0 -10.5625,0 0,3.069792 0,3.069792 10.562429,-0.03854 10.562429,-0.03854 7.1e-5,-3.03125 0,0 z"
       id="path2990"
       inkscape:connector-curvature="0"
       transform="translate(0,988.36218)"
       inkscape:export-filename="/home/parallels/Downloads/yagf-0.9.4/src/isrc/MAFY/path3786.png"
       inkscape:export-xdpi="78.477699"
       inkscape:export-ydpi="78.477699" />
    <path
       style="fill:none;stroke:none"
       d="m 24.838892,38.89369 c -3.535321,-0.640846 -6.550636,-2.528979 -8.53982,-5.347472 -2.556761,-3.6227 -3.06782,-8.187064 -1.376581,-12.294515 1.292589,-3.139265 4.043825,-5.823261 7.290419,-7.112241 4.635255,-1.840314 10.04853,-0.784446 13.755216,2.682977 3.799625,3.554363 5.063914,9.150802 3.16104,13.992511 -1.141728,2.905038 -3.493965,5.471498 -6.308455,6.882979 -2.377947,1.192552 -5.455811,1.65365 -7.981819,1.195761 l 0,0 z m 12.220572,-12.906569 7.1e-5,-3.031249 -10.5625,0 -10.5625,0 0,3.069792 0,3.069792 10.562429,-0.03854 10.562429,-0.03854 7.1e-5,-3.03125 0,0 z"
       id="path2992"
       inkscape:connector-curvature="0"
       transform="translate(0,988.36218)"
       inkscape:export-filename="/home/parallels/Downloads/yagf-0.9.4/src/isrc/MAFY/path3786.png"
       inkscape:export-xdpi="78.477699"
       inkscape:export-ydpi="78.477699" />
    <path
       style="fill:none;stroke:none"
       d="m 24.838892,38.89369 c -3.535321,-0.640846 -6.550636,-2.528979 -8.53982,-5.347472 -2.556761,-3.6227 -3.06782,-8.187064 -1.376581,-12.294515 1.292589,-3.139265 4.043825,-5.823261 7.290419,-7.112241 4.635255,-1.840314 10.04853,-0.784446 13.755216,2.682977 3.799625,3.554363 5.063914,9.150802 3.16104,13.992511 -1.141728,2.905038 -3.493965,5.471498 -6.308455,6.882979 -2.377947,1.192552 -5.455811,1.65365 -7.981819,1.195761 l 0,0 z m 12.220572,-12.906569 7.1e-5,-3.031249 -10.5625,0 -10.5625,0 0,3.069792 0,3.069792 10.562429,-0.03854 10.562429,-0.03854 7.1e-5,-3.03125 0,0 z"
       id="path2994"
       inkscape:connector-curvature="0"
       transform="translate(0,988.36218)"
       inkscape:export-filename="/home/parallels/Downloads/yagf-0.9.4/src/isrc/MAFY/path3786.png"
       inkscape:export-xdpi="78.477699"
       inkscape:export-ydpi="78.477699" />
    <path
       style="fill:none;stroke:none"
       d="m 24.838892,38.89369 c -3.535321,-0.640846 -6.550636,-2.528979 -8.53982,-5.347472 -2.556761,-3.6227 -3.06782,-8.187064 -1.376581,-12.294515 1.292589,-3.139265 4.043825,-5.823261 7.290419,-7.112241 4.635255,-1.840314 10.04853,-0.784446 13.755216,2.682977 3.799625,3.554363 5.063914,9.150802 3.16104,13.992511 -1.141728,2.905038 -3.493965,5.471498 -6.308455,6.882979 -2.377947,1.192552 -5.455811,1.65365 -7.981819,1.195761 l 0,0 z m 12.220572,-12.906569 7.1e-5,-3.031249 -10.5625,0 -10.5625,0 0,3.069792 0,3.069792 10.562429,-0.03854 10.562429,-0.03854 7.1e-5,-3.03125 0,0 z"
       id="path2996"
       inkscape:connector-curvature="0"
       transform="translate(0,988.36218)"
       inkscape:export-filename="/home/parallels/Downloads/yagf-0.9.4/src/isrc/MAFY/path3786.png"
       inkscape:export-xdpi="78.477699"
       inkscape:export-ydpi="78.477699" />
    <path
       style="fill:none;stroke:none"
       d="m 24.838892,38.89369 c -3.535321,-0.640846 -6.550636,-2.528979 -8.53982,-5.347472 -2.556761,-3.6227 -3.06782,-8.187064 -1.376581,-12.294515 1.292589,-3.139265 4.043825,-5.823261 7.290419,-7.112241 4.635255,-1.840314 10.04853,-0.784446 13.755216,2.682977 3.799625,3.554363 5.063914,9.150802 3.16104,13.992511 -1.141728,2.905038 -3.493965,5.471498 -6.308455,6.882979 -2.377947,1.192552 -5.455811,1.65365 -7.981819,1.195761 l 0,0 z m 12.220572,-12.906569 7.1e-5,-3.031249 -10.5625,0 -10.5625,0 0,3.069792 0,3.069792 10.562429,-0.03854 10.562429,-0.03854 7.1e-5,-3.03125 0,0 z"
       id="path2998"
       inkscape:connector-curvature="0"
       transform="translate(0,988.36218)"
       inkscape:export-filename="/home/parallels/Downloads/yagf-0.9.4/src/isrc/MAFY/path3786.png"
       inkscape:export-xdpi="78.477699"
       inkscape:export-ydpi="78.477699" />
    <path
       style="fill:#00c600;fill-opacity:0.42352942;stroke:none"
       d="m 17.059535,26.018371 0,-1.937499 9.4375,0 9.4375,0 0,1.937499 0,1.9375 -9.4375,0 -9.4375,0 0,-1.9375 z"
       id="path3786"
       inkscape:connector-curvature="0"
       transform="translate(0,988.36218)"
       inkscape:export-xdpi="78.477699"
       inkscape:export-ydpi="78.477699" />
  </g>
</svg>
