<?xml version="1.0" encoding="UTF-8" standalone="no"?>
<!-- Created with Inkscape (http://www.inkscape.org/) -->

<svg
   xmlns:dc="http://purl.org/dc/elements/1.1/"
   xmlns:cc="http://creativecommons.org/ns#"
   xmlns:rdf="http://www.w3.org/1999/02/22-rdf-syntax-ns#"
   xmlns:svg="http://www.w3.org/2000/svg"
   xmlns="http://www.w3.org/2000/svg"
   xmlns:xlink="http://www.w3.org/1999/xlink"
   xmlns:sodipodi="http://sodipodi.sourceforge.net/DTD/sodipodi-0.dtd"
   xmlns:inkscape="http://www.inkscape.org/namespaces/inkscape"
   width="64"
   height="64"
   id="svg6288"
   version="1.1"
   inkscape:version="0.48.3.1 r9886"
   sodipodi:docname="ZoomIn.svg"
   inkscape:export-filename="/home/parallels/Downloads/yagf-0.9.4/src/isrc/MAFY/ZoomIn.png"
   inkscape:export-xdpi="79.118912"
   inkscape:export-ydpi="79.118912">
  <title
     id="title3803">ZoomIn</title>
  <defs
     id="defs6290">
    <linearGradient
       inkscape:collect="always"
       id="linearGradient3770">
      <stop
         style="stop-color:#6bb2c1;stop-opacity:1;"
         offset="0"
         id="stop3772" />
      <stop
         style="stop-color:#6bb2c1;stop-opacity:0;"
         offset="1"
         id="stop3774" />
    </linearGradient>
    <linearGradient
       inkscape:collect="always"
       id="linearGradient2988">
      <stop
         style="stop-color:#ffffff;stop-opacity:1;"
         offset="0"
         id="stop2990" />
      <stop
         style="stop-color:#ffffff;stop-opacity:0;"
         offset="1"
         id="stop2992" />
    </linearGradient>
    <linearGradient
       inkscape:collect="always"
       xlink:href="#linearGradient2988"
       id="linearGradient2994"
       x1="18.384777"
       y1="17.154177"
       x2="35.001785"
       y2="32.356972"
       gradientUnits="userSpaceOnUse" />
    <linearGradient
       inkscape:collect="always"
       xlink:href="#linearGradient3770"
       id="linearGradient3776"
       x1="34.294678"
       y1="34.124741"
       x2="18.738329"
       y2="18.921944"
       gradientUnits="userSpaceOnUse" />
  </defs>
  <sodipodi:namedview
     id="base"
     pagecolor="#ffffff"
     bordercolor="#666666"
     borderopacity="1.0"
     inkscape:pageopacity="0.0"
     inkscape:pageshadow="2"
     inkscape:zoom="5.6568543"
     inkscape:cx="20.482459"
     inkscape:cy="39.06502"
     inkscape:document-units="px"
     inkscape:current-layer="layer1"
     showgrid="false"
     inkscape:window-width="1423"
     inkscape:window-height="906"
     inkscape:window-x="65"
     inkscape:window-y="24"
     inkscape:window-maximized="1">
    <inkscape:grid
       type="xygrid"
       id="grid3010" />
  </sodipodi:namedview>
  <metadata
     id="metadata6293">
    <rdf:RDF>
      <cc:Work
         rdf:about="">
        <dc:format>image/svg+xml</dc:format>
        <dc:type
           rdf:resource="http://purl.org/dc/dcmitype/StillImage" />
        <dc:title>ZoomIn</dc:title>
        <dc:creator>
          <cc:Agent>
            <dc:title>Nastya Bekassova</dc:title>
          </cc:Agent>
        </dc:creator>
        <dc:rights>
          <cc:Agent>
            <dc:title>Nastya Bekassova</dc:title>
          </cc:Agent>
        </dc:rights>
        <dc:description>More Air for YAGF icon set</dc:description>
        <dc:source>symmetrica.net/~bekassova/</dc:source>
        <cc:license
           rdf:resource="http://www.gnu.org/copyleft/gpl.html" />
      </cc:Work>
    </rdf:RDF>
  </metadata>
  <g
     inkscape:label="Layer 1"
     inkscape:groupmode="layer"
     id="layer1"
     transform="translate(0,-988.36218)">
    <path
       sodipodi:type="arc"
       style="fill:#ffffff;fill-opacity:0;stroke:#000090;stroke-opacity:1;stroke-width:0.44643627;stroke-miterlimit:4;stroke-dasharray:none"
       id="path3790"
       sodipodi:cx="22.1875"
       sodipodi:cy="52.5625"
       sodipodi:rx="9.4375"
       sodipodi:ry="8.9375"
       d="m 31.625,52.5625 c 0,4.936045 -4.225313,8.9375 -9.4375,8.9375 -5.212187,0 -9.4375,-4.001455 -9.4375,-8.9375 0,-4.936045 4.225313,-8.9375 9.4375,-8.9375 5.212187,0 9.4375,4.001455 9.4375,8.9375 z"
       transform="matrix(1.4001504,0,0,1.490822,-4.3316691,936.15638)"
       inkscape:export-filename="/home/parallels/Downloads/yagf-0.9.4/src/isrc/MAFY/ZoomIn.png"
       inkscape:export-xdpi="79.118912"
       inkscape:export-ydpi="79.118912" />
    <path
       sodipodi:nodetypes="cccccccccccccccccccccccccc"
       inkscape:connector-curvature="0"
       id="path4314"
       d="m 24,1005.3622 c 0,2 0,4 0,6 -1.99999,0 -4,0 -5.99999,0 0,2.6666 0,3.3333 0,6 1.99999,0 4,0 5.99999,0 0,2 0,4 0,6 2.66667,0 3.33334,0 6,0 0.022,-2.0554 -0.005,-3.9445 0,-6 2.03126,0 3.96875,0 6.00001,0 0.0697,-2.7804 0,-4 0,-6 -1.94302,0 -4.05699,0 -6.00001,0 -0.001,-2 0.0213,-4.0001 0,-6 -2.66666,0 -3.33333,0 -6,0 z m 1,1 c 2,0 2,0 4,0 0,2 0,4 0,6 2,0 4,0 6,0 0,2 0,2 0,4 -2,0 -4,0 -6,0 0,2 0,4 0,6 -2,0 -2,0 -4,0 0,-2 0,-4 0,-6 -2,0 -4,0 -6,0 0,-2 0,-2 0,-4 2.00001,0 4,0 6,0 0,-2 10e-6,-4 0,-6 z"
       style="font-size:medium;font-style:normal;font-variant:normal;font-weight:normal;font-stretch:normal;text-indent:0;text-align:start;text-decoration:none;line-height:normal;letter-spacing:normal;word-spacing:normal;text-transform:none;direction:ltr;block-progression:tb;writing-mode:lr-tb;text-anchor:start;baseline-shift:baseline;color:#000000;fill:#008400;fill-opacity:1;fill-rule:nonzero;stroke:none;stroke-width:1;marker:none;visibility:visible;display:inline;overflow:visible;enable-background:accumulate;font-family:Sans;-inkscape-font-specification:Sans"
       inkscape:export-xdpi="79.118912"
       inkscape:export-ydpi="79.118912"
       inkscape:export-filename="/home/parallels/Downloads/yagf-0.9.4/src/isrc/MAFY/ZoomIn.png" />
    <path
       style="fill:none;stroke:none"
       d="M 25.398652,38.956525 C 20.823036,38.449756 16.645547,35.311468 14.931519,31.09322 11.495261,22.636537 17.641656,13.33829 26.680775,13.318982 c 2.102068,-0.0045 3.726849,0.361422 5.557334,1.251549 3.360301,1.634046 5.801458,4.57739 6.828652,8.233418 0.550769,1.960321 0.550769,4.741259 0,6.70158 -1.720164,6.122477 -7.518846,10.132053 -13.668109,9.450996 l 0,0 z m 4.629748,-6.879767 0,-3.005204 3.005204,0 3.005204,0 0,-3.093592 0,-3.093592 -3.005204,0 -3.005204,0 0,-3.005204 0,-3.005203 -3.093592,0 -3.093592,0 0,3.000929 0,3.00093 -2.961009,0.04847 -2.96101,0.04847 -0.04837,3.049398 -0.04837,3.049398 3.009378,0 3.009378,0 0,3.005204 0,3.005204 3.093592,0 3.093592,0 0,-3.005204 z"
       id="path2996"
       inkscape:connector-curvature="0"
       transform="translate(0,988.36218)"
       inkscape:export-filename="/home/parallels/Downloads/yagf-0.9.4/src/isrc/MAFY/ZoomIn.png"
       inkscape:export-xdpi="79.118912"
       inkscape:export-ydpi="79.118912" />
    <path
       style="fill:#00c600;fill-opacity:0.42352942;stroke:none"
       d="m 25.078653,30.839321 0,-3.005203 -3.005204,0 -3.005204,0 0,-1.856156 0,-1.856155 3.005204,0 3.005204,0 0,-3.005204 0,-3.005204 1.944544,0 1.944543,0 0,3.005204 0,3.005204 3.005204,0 3.005204,0 0,1.856155 0,1.856156 -3.005204,0 -3.005204,0 0,3.005203 0,3.005204 -1.944543,0 -1.944544,0 0,-3.005204 z"
       id="path3778"
       inkscape:connector-curvature="0"
       transform="translate(0,988.36218)"
       inkscape:export-xdpi="79.118912"
       inkscape:export-ydpi="79.118912"
       inkscape:export-filename="/home/parallels/Downloads/yagf-0.9.4/src/isrc/MAFY/ZoomIn.png" />
  </g>
</svg>
